<svg class="animated" id="freepik_stories-discussion" xmlns="http://www.w3.org/2000/svg" viewBox="0 0 500 500" version="1.1" xmlns:xlink="http://www.w3.org/1999/xlink" xmlns:svgjs="http://svgjs.com/svgjs"><style>svg#freepik_stories-discussion:not(.animated) .animable {opacity: 0;}svg#freepik_stories-discussion.animated #freepik--background-complete--inject-534 {animation: 1.5s Infinite  linear wind;animation-delay: 0s;}svg#freepik_stories-discussion.animated #freepik--character-2--inject-534 {animation: 1.5s Infinite  linear floating;animation-delay: 0s;}svg#freepik_stories-discussion.animated #freepik--character-1--inject-534 {animation: 1.5s Infinite  linear floating;animation-delay: 0s;}svg#freepik_stories-discussion.animated #freepik--Plant--inject-534 {animation: 1.5s Infinite  linear wind;animation-delay: 0s;}svg#freepik_stories-discussion.animated #freepik--speech-bubbles-2--inject-534 {animation: 1.5s Infinite  linear heartbeat;animation-delay: 0s;}svg#freepik_stories-discussion.animated #freepik--speech-bubbles-1--inject-534 {animation: 1.5s Infinite  linear heartbeat;animation-delay: 0s;}            @keyframes wind {                0% {                    transform: rotate( 0deg );                }                25% {                    transform: rotate( 1deg );                }                75% {                    transform: rotate( -1deg );                }            }                    @keyframes floating {                0% {                    opacity: 1;                    transform: translateY(0px);                }                50% {                    transform: translateY(-10px);                }                100% {                    opacity: 1;                    transform: translateY(0px);                }            }                    @keyframes heartbeat {                0% {                    transform: scale(1);                }                10% {                    transform: scale(1.1);                }                30% {                    transform: scale(1);                }                40% {                    transform: scale(1);                }                50% {                    transform: scale(1.1);                }                60% {                    transform: scale(1);                }                100% {                    transform: scale(1);                }            }        </style><g id="freepik--background-complete--inject-534" class="animable" style="transform-origin: 250px 213.875px;"><g id="elj2xva6xyvoo"><circle cx="181.03" cy="63.27" r="20.45" style="fill: rgb(235, 235, 235); opacity: 0.19; transform-origin: 181.03px 63.27px;" class="animable" id="elmhve917yv8k"></circle></g><g id="elxd28fe7ev6f"><circle cx="181.03" cy="66.63" r="15.17" style="fill: rgb(235, 235, 235); opacity: 0.19; transform-origin: 181.03px 66.63px; transform: rotate(-76.63deg);" class="animable" id="elwh3ueekoae"></circle></g><polygon points="203.36 66.63 189.23 90.71 172.83 90.71 158.69 66.63 203.36 66.63" style="fill: rgb(235, 235, 235); transform-origin: 181.025px 78.67px;" id="el32ts3k4j0sv" class="animable"></polygon><polygon points="193.07 98.82 169 98.82 172.83 90.71 189.23 90.71 193.07 98.82" style="fill: rgb(235, 235, 235); transform-origin: 181.035px 94.765px;" id="elkub314roggr" class="animable"></polygon><polygon points="191.78 86.37 189.23 90.72 172.82 90.72 170.89 87.42 191.78 86.37" style="fill: rgb(199, 199, 199); transform-origin: 181.335px 88.545px;" id="elek03j2cqh" class="animable"></polygon><g id="eljada9w1uvlo"><circle cx="250" cy="63.27" r="20.45" style="fill: rgb(235, 235, 235); opacity: 0.19; transform-origin: 250px 63.27px;" class="animable" id="el4fbccsm8r5l"></circle></g><g id="el6iebdjulgw2"><circle cx="250" cy="66.63" r="15.17" style="fill: rgb(235, 235, 235); opacity: 0.19; transform-origin: 250px 66.63px; transform: rotate(-24.18deg);" class="animable" id="elq30ku4zkhe"></circle></g><polygon points="272.33 66.63 258.2 90.71 241.8 90.71 227.67 66.63 272.33 66.63" style="fill: rgb(235, 235, 235); transform-origin: 250px 78.67px;" id="ele84tcoiyycr" class="animable"></polygon><polygon points="262.04 98.82 237.97 98.82 241.8 90.71 258.2 90.71 262.04 98.82" style="fill: rgb(235, 235, 235); transform-origin: 250.005px 94.765px;" id="elfxn2r3mm9li" class="animable"></polygon><polygon points="260.76 86.37 258.2 90.72 241.8 90.72 239.86 87.42 260.76 86.37" style="fill: rgb(199, 199, 199); transform-origin: 250.31px 88.545px;" id="eldy9d9el8c1t" class="animable"></polygon><g id="elk5tav5udo"><circle cx="318.97" cy="63.27" r="20.45" style="fill: rgb(235, 235, 235); opacity: 0.19; transform-origin: 318.97px 63.27px;" class="animable" id="elczge36ed86f"></circle></g><g id="elja9m3x9yk9"><circle cx="318.97" cy="66.63" r="15.17" style="fill: rgb(235, 235, 235); opacity: 0.19; transform-origin: 318.97px 66.63px; transform: rotate(-45deg);" class="animable" id="el5np1b2pte4i"></circle></g><polygon points="341.31 66.63 327.17 90.71 310.77 90.71 296.64 66.63 341.31 66.63" style="fill: rgb(235, 235, 235); transform-origin: 318.975px 78.67px;" id="el8hq0q8w0cy4" class="animable"></polygon><polygon points="331.01 98.82 306.94 98.82 310.77 90.71 327.17 90.71 331.01 98.82" style="fill: rgb(235, 235, 235); transform-origin: 318.975px 94.765px;" id="elelltnotp2y" class="animable"></polygon><polygon points="329.73 86.37 327.18 90.72 310.77 90.72 308.84 87.42 329.73 86.37" style="fill: rgb(199, 199, 199); transform-origin: 319.285px 88.545px;" id="el2a1edlaykml" class="animable"></polygon><g id="elnerto2t5wq7"><rect x="407.41" y="359.63" width="26.48" height="11.19" style="fill: rgb(235, 235, 235); transform-origin: 420.65px 365.225px; transform: rotate(180deg);" class="animable" id="el6k0inrd9sec"></rect></g><g id="el6cn2by95zvt"><rect x="422.18" y="373.74" width="26.48" height="11.19" style="fill: rgb(235, 235, 235); transform-origin: 435.42px 379.335px; transform: rotate(180deg);" class="animable" id="eltwp0764dm2"></rect></g><g id="elxnirska3co"><rect x="257.94" y="197.63" width="26.48" height="11.19" style="fill: rgb(235, 235, 235); transform-origin: 271.18px 203.225px; transform: rotate(180deg);" class="animable" id="el37pwxp6gan"></rect></g><g id="elfywcopgw6k"><rect x="272.71" y="211.74" width="26.48" height="11.19" style="fill: rgb(235, 235, 235); transform-origin: 285.95px 217.335px; transform: rotate(180deg);" class="animable" id="elgbutff6ko4a"></rect></g><g id="elyfshx6diif"><rect x="287.43" y="197.63" width="26.48" height="11.19" style="fill: rgb(235, 235, 235); transform-origin: 300.67px 203.225px; transform: rotate(180deg);" class="animable" id="eledmp8m0sj3h"></rect></g><g id="el4wd3xe2bcoe"><rect x="51.34" y="373.74" width="26.48" height="11.19" style="fill: rgb(235, 235, 235); transform-origin: 64.58px 379.335px; transform: rotate(180deg);" class="animable" id="elq8npkdpn9dn"></rect></g><g id="el7rw2p85nxob"><rect x="66.11" y="46.74" width="26.48" height="11.19" style="fill: rgb(235, 235, 235); transform-origin: 79.35px 52.335px; transform: rotate(180deg);" class="animable" id="elwhve2xx4lzl"></rect></g><g id="elns1t25zi5u"><rect x="51.34" y="60.85" width="26.48" height="11.19" style="fill: rgb(235, 235, 235); transform-origin: 64.58px 66.445px; transform: rotate(180deg);" class="animable" id="el6vk3qyb1a12"></rect></g><g id="elrm31cntj55p"><rect x="407.41" y="46.74" width="26.48" height="11.19" style="fill: rgb(235, 235, 235); transform-origin: 420.65px 52.335px; transform: rotate(180deg);" class="animable" id="elhsfta3p73e8"></rect></g><g id="el6xcq5q2o3ad"><rect x="136.05" y="150.69" width="26.48" height="11.19" style="fill: rgb(235, 235, 235); transform-origin: 149.29px 156.285px; transform: rotate(180deg);" class="animable" id="elonqsf05ztzo"></rect></g></g><g id="freepik--Floor--inject-534" class="animable" style="transform-origin: 250px 457.62px;"><polygon points="44.35 457.62 95.76 457.38 147.17 457.29 250 457.12 352.83 457.29 404.24 457.37 455.65 457.62 404.24 457.86 352.83 457.95 250 458.12 147.17 457.95 95.76 457.86 44.35 457.62" style="fill: rgb(38, 50, 56); transform-origin: 250px 457.62px;" id="ellv12wrvk60c" class="animable"></polygon></g><g id="freepik--character-2--inject-534" class="animable" style="transform-origin: 354.882px 284.029px;"><polygon points="330.26 315.72 327.23 333.89 306.7 457.53 303.39 457.53 318.32 333.89 320.53 315.72 330.26 315.72" style="fill: rgb(219, 219, 219); transform-origin: 316.825px 386.625px;" id="elnk3lavo4t4" class="animable"></polygon><polygon points="320.53 315.72 330.26 315.72 327.23 333.89 318.32 333.89 320.53 315.72" style="fill: rgb(166, 166, 166); transform-origin: 324.29px 324.805px;" id="el7vrxt2gvot7" class="animable"></polygon><polygon points="394.73 457.53 391.42 457.53 370.89 333.89 367.86 315.72 377.6 315.72 379.8 333.89 394.73 457.53" style="fill: rgb(219, 219, 219); transform-origin: 381.295px 386.625px;" id="elvhbw9ryc6i" class="animable"></polygon><polygon points="377.6 315.72 379.8 333.89 370.89 333.89 367.86 315.72 377.6 315.72" style="fill: rgb(166, 166, 166); transform-origin: 373.83px 324.805px;" id="el1dbao3umq91" class="animable"></polygon><polygon points="456.31 457.53 453 457.53 432.47 333.89 429.44 315.72 439.17 315.72 441.38 333.89 456.31 457.53" style="fill: rgb(219, 219, 219); transform-origin: 442.875px 386.625px;" id="elwujkeo0cpf" class="animable"></polygon><polygon points="441.38 333.89 432.47 333.89 429.44 315.72 439.17 315.72 441.38 333.89" style="fill: rgb(166, 166, 166); transform-origin: 435.41px 324.805px;" id="el2iodqfsfdzg" class="animable"></polygon><polygon points="451.06 324.26 300.63 324.26 300.63 308.41 356.94 308.41 375.87 198.3 445.32 198.3 451.06 324.26" style="fill: rgb(219, 219, 219); transform-origin: 375.845px 261.28px;" id="elbedzt4scfen" class="animable"></polygon><polygon points="451.06 324.26 442.86 324.26 437.51 198.3 445.32 198.3 451.06 324.26" style="fill: rgb(166, 166, 166); transform-origin: 444.285px 261.28px;" id="elnkcr8ssrvd" class="animable"></polygon><path d="M367.87,169.83c-23.11,26.07-44.09,54.12-44.5,67.29-.57,18.23,12.61,20,17.56,19.47,13.47-1.38,30.2-56.69,36.37-78.47C383.28,157,372.94,164.11,367.87,169.83Z" style="fill: #FFA500; transform-origin: 351.23px 210.286px;" id="eljke64ovc42f" class="animable"></path><g id="el6l2mxseaq97"><path d="M377.3,178.12c-6.16,21.78-22.9,77.09-36.37,78.47a15.49,15.49,0,0,1-1.87.06c7.08-18.53,28.24-73.91,35.47-92.23C378.34,162.69,381.08,164.76,377.3,178.12Z" style="opacity: 0.1; transform-origin: 359.084px 210.276px;" class="animable" id="elys99pfxc4y"></path></g><path d="M256.4,456.07c3,.26,77.81-19.43,80.37-22.11,1-1-1.2-12.79-4.25-26.95l-10.08-39.85-48,11.71,8.07,41.56S258.86,440.74,256.35,444,253.39,455.83,256.4,456.07Z" style="fill: rgb(173, 99, 89); transform-origin: 295.658px 411.616px;" id="elqlqiyxv6k3c" class="animable"></path><path d="M255.26,457.32c2.92.2,79.85-19.72,82.3-22.34.94-1-1.46-12.93-4.56-26.6l-52,13s-23,19.95-25.34,23.11S252.34,457.12,255.26,457.32Z" style="fill: #FFA500; transform-origin: 295.61px 432.851px;" id="eltu5fru3t49l" class="animable"></path><path d="M255.56,454c12.82-3.66,64.84-17.2,77.79-19.84.1,0,.12.05,0,.08-12.62,3.9-64.76,17-77.75,20C255.34,454.23,255.29,454,255.56,454Z" style="fill: rgb(38, 50, 56); transform-origin: 294.406px 444.2px;" id="elm1gq0rzh7o9" class="animable"></path><path d="M259.31,441.57a10.68,10.68,0,0,1,8.53,1.15,10.4,10.4,0,0,1,4.67,6.14c0,.08-.13.12-.16,0a12.36,12.36,0,0,0-13-7.17A.08.08,0,0,1,259.31,441.57Z" style="fill: rgb(38, 50, 56); transform-origin: 265.903px 445.044px;" id="elt3d3gshpptp" class="animable"></path><path d="M276.23,424.37c4.92-2.06,11.36-2.62,16.06.19.18.11,0,.37-.16.35a74,74,0,0,0-15.74.1A.33.33,0,0,1,276.23,424.37Z" style="fill: rgb(38, 50, 56); transform-origin: 284.178px 423.827px;" id="ellenyv1e20za" class="animable"></path><path d="M273,427.39c4.92-2.05,11.35-2.61,16.06.2.18.11,0,.36-.16.35a73.3,73.3,0,0,0-15.74.1A.34.34,0,0,1,273,427.39Z" style="fill: rgb(38, 50, 56); transform-origin: 280.967px 426.853px;" id="elyg8beo7vumf" class="animable"></path><path d="M269.79,430.42c4.92-2.06,11.35-2.62,16,.19.19.11,0,.37-.15.35a73.3,73.3,0,0,0-15.74.1A.33.33,0,0,1,269.79,430.42Z" style="fill: rgb(38, 50, 56); transform-origin: 277.721px 429.873px;" id="elwewu7sv31ak" class="animable"></path><path d="M282,420.55l51-12.17s-15-86.95-12.8-89.92c4.09-5.63,66.37-4.43,85.58-23.52,20.34-20.21,11.46-45.77,11.46-45.77h-55.7s-.44,7.49-1.46,7.79c-12.62,3.68-62.17,5.31-80.2,19.76-4.64,3.72-12.48,13.4-14.08,23C260.73,330.43,282,420.55,282,420.55Z" style="fill: rgb(38, 50, 56); transform-origin: 342.094px 334.86px;" id="elgxwjzwh439h" class="animable"></path><path d="M329.59,399a26.81,26.81,0,0,0-4.62.67l-4.69.94-9.56,2c-6.36,1.32-12.71,2.69-19,4.19-3.57.84-7.09,1.83-10.63,2.79-.14,0-.08.25.06.23,12.86-2.09,25.53-5,38.22-7.88l5.17-1.21a29.43,29.43,0,0,0,5.15-1.47C329.76,399.16,329.7,399,329.59,399Z" style="fill: rgb(55, 71, 79); transform-origin: 305.365px 404.411px;" id="elrmfjnre9fo" class="animable"></path><path d="M405.78,294.94c-12.47,12.39-43.09,16.23-64.16,18.95l41.2-64.72h34.42S426.12,274.73,405.78,294.94Z" style="fill: rgb(55, 71, 79); transform-origin: 380.395px 281.53px;" id="elfkhqni00ik6" class="animable"></path><path d="M323.35,394.31c.13.73-.28,1.16-.54,0-6-27.38-10.34-61.55-10.78-66-.23-2.23-.42-4.46-.52-6.7-.05-1.12-.09-2.25-.06-3.38a15.61,15.61,0,0,1,.35-3.43,4.08,4.08,0,0,1,.32-.88,2.27,2.27,0,0,1,.66-.77,6.62,6.62,0,0,1,1.58-.86,24,24,0,0,1,3.24-1.05c2.18-.57,4.38-1,6.58-1.42,4.4-.8,8.82-1.48,13.23-2.16,8.83-1.32,17.66-2.61,26.43-4.24s17.51-3.52,25.81-6.69c4.09-1.65,8.19-3.62,11-7.08a39.45,39.45,0,0,0,7.35-11,47.91,47.91,0,0,0,3.41-26.14,48.18,48.18,0,0,1-3,26.34,39.83,39.83,0,0,1-7.34,11.23,30,30,0,0,1-2.37,2.42,24.39,24.39,0,0,1-2.77,2,42,42,0,0,1-6.06,3,97.61,97.61,0,0,1-12.81,4c-4.35,1.09-8.72,2-13.12,2.84-8.78,1.66-17.62,3-26.44,4.33-4.41.66-8.83,1.32-13.21,2.11-2.19.4-4.37.83-6.51,1.38a24.79,24.79,0,0,0-3.13,1,5.88,5.88,0,0,0-1.36.74,1.27,1.27,0,0,0-.42.48,3,3,0,0,0-.25.68,15.42,15.42,0,0,0-.34,3.22c0,1.1,0,2.21.05,3.32.1,2.22.28,4.43.49,6.65.44,4.43,1,8.86,1.61,13.28C315.71,350.33,321.79,385.52,323.35,394.31Z" style="fill: rgb(55, 71, 79); transform-origin: 361.753px 323.769px;" id="eli3dmrscntr" class="animable"></path><path d="M322.18,457.93c2.89.93,68.93-.14,72-2.16,1.2-.75,1.74-12.73,2-27.22v-.46c.06-3,.1-6.06.1-9.18,0-.43,0-.86,0-1.28.11-20.92-2.19-42.12-2.19-42.12l-53,.05,1.65,42.22.07,1.67.33,8.74,0,.9s-15.16,14.47-18.34,17.06S319.3,457,322.18,457.93Z" style="fill: rgb(173, 99, 89); transform-origin: 358.577px 416.889px;" id="el7mirfzrjghh" class="animable"></path><path d="M319.29,458.21c2.79.9,72.43.28,75.45-1.66,1.15-.73,1.73-12.91,2-26.92H342s-17,14.7-20.08,17.19S316.51,457.3,319.29,458.21Z" style="fill: #FFA500; transform-origin: 357.394px 444.122px;" id="el04jnl5g0gstr" class="animable"></path><path d="M320.41,455c13.32-.43,57.26-.92,70.45-.34.11,0,.11.08,0,.09-13.19.72-57.13.77-70.45.47C320.13,455.23,320.13,455,320.41,455Z" style="fill: rgb(38, 50, 56); transform-origin: 355.571px 454.894px;" id="elzdf3cq4zkq" class="animable"></path><path d="M323.25,446.54c7.28-3.57,15.58-4.47,21-3.3,5.19,1.12,10.36,3.67,12.17,8.18.05.13-.29.29-.38.17-5.6-7.51-20-9.77-32.65-4.78C323.12,446.91,323,446.66,323.25,446.54Z" style="fill: rgb(38, 50, 56); transform-origin: 339.769px 447.195px;" id="eldm5xt5f0tle" class="animable"></path><path d="M340.48,437.55a41.61,41.61,0,0,1,24.9.92c.27.1-.07.45-.34.42-8.25-.85-15.77-1.53-24.5-.54C339.94,438.42,339.88,437.71,340.48,437.55Z" style="fill: rgb(38, 50, 56); transform-origin: 352.769px 437.483px;" id="els2jt80gw5pl" class="animable"></path><path d="M343.28,434.14a41.69,41.69,0,0,1,24.9.93c.27.1-.06.45-.34.42-8.24-.86-15.77-1.53-24.5-.54C342.74,435,342.69,434.3,343.28,434.14Z" style="fill: rgb(38, 50, 56); transform-origin: 355.572px 434.082px;" id="elsp9nn38e9mo" class="animable"></path><path d="M346.08,430.74a41.61,41.61,0,0,1,24.9.93c.27.1-.06.45-.33.42-8.25-.86-15.78-1.53-24.5-.54C345.54,431.61,345.49,430.9,346.08,430.74Z" style="fill: rgb(38, 50, 56); transform-origin: 358.372px 430.68px;" id="elxyhx605xvds" class="animable"></path><path d="M341.46,430.5l56.13-.43s-.39-94.33,2.37-101.64,13-12.71,25.33-27c18.75-21.7,2.38-52.2,2.38-52.2l-54.86,0s-7.12,18-6.7,25.27c0,0,5.88.37,9.45.38,0,0-25.53,21.11-32.05,40.9C337.93,332.68,341.46,430.5,341.46,430.5Z" style="fill: rgb(38, 50, 56); transform-origin: 387.324px 339.865px;" id="elz3zm6t5c9ig" class="animable"></path><path d="M391.2,276.08a72.55,72.55,0,0,0-15.55-1.84,108.88,108.88,0,0,0-15.84.78.12.12,0,0,0,0,.23c5.23.18,10.47.46,15.7.75s10.4.71,15.61.72A.33.33,0,0,0,391.2,276.08Z" style="fill: rgb(55, 71, 79); transform-origin: 375.572px 275.465px;" id="elos85qjs7nqh" class="animable"></path><path d="M418,268.94a39.83,39.83,0,0,1-7.23-1.64,10.42,10.42,0,0,1-5.18-2.75c-2.76-3-3.92-7-6.06-10.39-.07-.12-.23,0-.21.09a50.49,50.49,0,0,0,2,6.9,14.31,14.31,0,0,0,3,5.22c3.43,3.57,9.09,3.11,13.61,3C418.32,269.41,418.29,269,418,268.94Z" style="fill: rgb(55, 71, 79); transform-origin: 408.769px 261.78px;" id="el8lut7saaonu" class="animable"></path><path d="M394.56,419.06a28.07,28.07,0,0,0-4.77-.37c-1.63,0-3.27-.09-4.91-.12l-10-.22c-6.67-.13-13.33-.2-20-.15-3.76,0-7.51.2-11.26.36a.12.12,0,0,0,0,.23c13.34.83,26.66.85,40,.83l5.45,0a31.31,31.31,0,0,0,5.48-.28A.13.13,0,0,0,394.56,419.06Z" style="fill: rgb(55, 71, 79); transform-origin: 369.115px 418.912px;" id="eld0spm9gc2sc" class="animable"></path><path d="M368.62,251.44c.26,3.32.44,6.65.85,9.95.19,1.56.33,3.14.64,4.68a3,3,0,0,0,.84,1.78,3.72,3.72,0,0,0,2,.68,2.17,2.17,0,0,0,2.69-2.12c.28-3-.6-13.52-.62-14.38,0-.17.55-.18.57,0,.82,6.62,1.91,15.07.51,16.51a4.43,4.43,0,0,1-5.76.41,4.2,4.2,0,0,1-1.26-2.7c-.21-1.45-.28-2.93-.39-4.38-.25-3.47-.56-6.93-.62-10.4C368.06,251.15,368.59,251.14,368.62,251.44Z" style="fill: rgb(55, 71, 79); transform-origin: 372.422px 260.523px;" id="elcjpcb992ehj" class="animable"></path><path d="M373.58,269a10.8,10.8,0,0,1,.25,1.26c.09.43.18.85.28,1.27s.2.83.31,1.25.18.84.27,1.26a.16.16,0,0,1-.3.1,10.24,10.24,0,0,1-.51-1.18c-.14-.42-.28-.84-.39-1.27s-.2-.84-.29-1.26a5.9,5.9,0,0,1-.23-1.31A.33.33,0,0,1,373.58,269Z" style="fill: rgb(55, 71, 79); transform-origin: 373.831px 271.533px;" id="el4d2zflm66pa" class="animable"></path><path d="M425.55,254.39a118.29,118.29,0,0,1,1.3,21.36,36.22,36.22,0,0,1-1.81,10.6,20.44,20.44,0,0,1-2.63,4.73c-1,1.47-2.16,2.87-3.32,4.23-4.64,5.46-9.75,10.47-14.71,15.59-2.48,2.56-4.95,5.13-7.26,7.82a33.19,33.19,0,0,0-3.15,4.21,14.75,14.75,0,0,0-1.57,4.9c-.65,3.48-1,7-1.29,10.57s-.51,7.11-.68,10.67c-.35,7.12-.52,14.25-.69,21.38s.14,36.07.16,42.8c0,.4-.55.52-.61,0-.19-7.13-.23-14.26-.32-21.4s-.06-14.27,0-21.41.23-14.28.54-21.41c.16-3.57.36-7.14.64-10.7s.62-7.13,1.26-10.68c.16-.89.36-1.77.61-2.65a10.19,10.19,0,0,1,1.09-2.57,35.19,35.19,0,0,1,3.27-4.34c2.35-2.71,4.85-5.27,7.34-7.83,5-5.1,10.09-10.09,14.79-15.43,1.17-1.34,2.3-2.71,3.34-4.14a19.4,19.4,0,0,0,2.62-4.56,36.84,36.84,0,0,0,1.92-10.4A118.09,118.09,0,0,0,425.55,254.39Z" style="fill: rgb(55, 71, 79); transform-origin: 407.908px 333.993px;" id="elqqpaeir4vc8" class="animable"></path><path d="M361.54,249.17s67.26,3.83,67.64,3.29S417.43,171,393.74,161.32c-4.65-1.91-12.32-1.78-17.21,2.16C362.06,175.12,360.36,248.06,361.54,249.17Z" style="fill: rgb(235, 235, 235); transform-origin: 395.212px 206.316px;" id="el36dlbyw22qa" class="animable"></path><path d="M392.36,160.52,388.9,203l10,74.82,40-3.57s-21.84-82.33-29.55-96C400.67,162.77,392.36,160.52,392.36,160.52Z" style="fill: #FFA500; transform-origin: 413.9px 219.17px;" id="elh5i26lhj29b" class="animable"></path><path d="M374.32,163.9s-6.41,38.39-6.14,39.16S363,272.93,363,272.93l-16-13.66s8.85-19.11,9-20.77,9.74-49.73,12.11-59.6S374.32,163.9,374.32,163.9Z" style="fill: #FFA500; transform-origin: 360.66px 218.415px;" id="elt786qg0j88d" class="animable"></path><path d="M401.23,165.71c23.51,20.11,46,54.1,45.41,72.56-.58,18.22-6.86,16.19-8.65,16-11-1.18-34.77-53-41.79-73.95S395.42,160.73,401.23,165.71Z" style="fill: #FFA500; transform-origin: 419.868px 208.52px;" id="elva6i92a80g" class="animable"></path><path d="M424,239.42c-1.18-2.35-2.4-4.67-3.54-7l-3.5-7c-2.31-4.71-4.66-9.4-6.89-14.15s-4.54-9.45-6.75-14.21c-1.1-2.37-2.19-4.76-3.23-7.17S398,185,397,182.55a141.94,141.94,0,0,0,5.42,14.82c2,4.85,4.25,9.61,6.49,14.37s4.67,9.42,7.17,14S421.12,235,424,239.42Z" style="fill: rgb(38, 50, 56); transform-origin: 410.5px 210.985px;" id="elcmpiptff3wb" class="animable"></path><path d="M399.29,188.77a22.16,22.16,0,0,0-1.4-2.44c-.26-.39-.5-.78-.78-1.16s-.53-.77-.84-1.14a7.12,7.12,0,0,0,1.08,2.64A7.9,7.9,0,0,0,399.29,188.77Z" style="fill: rgb(38, 50, 56); transform-origin: 397.78px 186.4px;" id="eleibc9ai6e5q" class="animable"></path><path d="M344.18,254.6c7-5.46,3.48-21.5-.93-48.86-.77-4.8-32.7-13.2-33.29-8-.74,6.5,3.93,33.44,7,40.86C323,253.2,336,261,344.18,254.6Z" style="fill: rgb(173, 99, 89); transform-origin: 329.015px 226.478px;" id="eltgx7yullzte" class="animable"></path><path d="M312.46,209.89c-3.15-9.95-3.53-22.06-2.13-26.15s12.18-16.06,15.17-18.26,17.41.51,20.65,1.24c2.59.59,4.4,3.27-.53,5.64-6.33,3-13.19,1.12-14.73,2.45s-3.1,8.49-1.1,10.73c1.19,1.31,5.2,1.86,7.59-.27s2.39-5.75,4.77-9.34,8.08-5,8.87-3.6-.84,2.7-2.11,8.74c-.81,3.88.51,9.77-1.91,16.77a84.91,84.91,0,0,1-4.95,10.08Z" style="fill: rgb(173, 99, 89); transform-origin: 330.392px 187.263px;" id="elcig6mcw0ige" class="animable"></path><path d="M316.79,189.8c-.8-5-.69-15.52,2.75-22.12,2.33-4.47,10.89-15.22,14.11-13.17,4.6,2.92-4.91,17.67-5.5,19.72-1.82,6.29.67,14.52.67,14.52Z" style="fill: rgb(173, 99, 89); transform-origin: 325.641px 172.026px;" id="elrg3g6oqdi2" class="animable"></path><path d="M327.55,181.37a18.65,18.65,0,0,1-.32-4.48,12.56,12.56,0,0,1,.33-2.27,11.24,11.24,0,0,1,.81-2.15c.65-1.36,1.36-2.66,2.12-3.94s1.56-2.52,2.34-3.79a33.15,33.15,0,0,1-1.67,4.14l-1.89,4A13.27,13.27,0,0,0,328,177C327.81,178.41,327.69,179.88,327.55,181.37Z" style="fill: rgb(38, 50, 56); transform-origin: 330.019px 173.055px;" id="el2n6iu3oovov" class="animable"></path><path d="M315.83,190.88c-1.59-4.75-3.2-14.89-.95-21.84,1.52-4.7,8.05-16.49,11.49-15,4.93,2.08-1.86,17.89-2.1,20-.72,6.38,3,13.93,3,13.93Z" style="fill: rgb(173, 99, 89); transform-origin: 320.965px 172.395px;" id="el61znu7hwpa" class="animable"></path><path d="M325.07,181.34a16.1,16.1,0,0,1-1.41-6.37,17.14,17.14,0,0,1,.75-3.21c.28-1,.58-2.07.89-3.09q.9-3.09,1.87-6.15c.62-2,1.3-4.11.75-6.23a6.7,6.7,0,0,1,.49,3.2,20.13,20.13,0,0,1-.56,3.21c-.47,2.1-1,4.17-1.61,6.24-.28,1-.58,2.06-.89,3.09l-.46,1.54a7,7,0,0,0-.35,1.47A25.13,25.13,0,0,0,325.07,181.34Z" style="fill: rgb(38, 50, 56); transform-origin: 326.049px 168.815px;" id="el0j1l2yywf0yd" class="animable"></path><path d="M309.67,194.27c-.42-7,.16-17.5,1-20.55s5.4-14.18,9-14.87c4.46-.86,2,8.35,1.12,12.21s.82,9.21.82,9.21Z" style="fill: rgb(173, 99, 89); transform-origin: 315.896px 176.532px;" id="el0bjewf2wfpxu" class="animable"></path><path d="M320.19,158.8a2.65,2.65,0,0,1,1.28.35,2.09,2.09,0,0,1,.86,1.06,6.67,6.67,0,0,1,.3,2.69,28.56,28.56,0,0,1-.89,5.28,21.53,21.53,0,0,0-.93,5.09,17.7,17.7,0,0,0,.88,5.07c1,3.33,2.65,6.51,3.41,10a23.93,23.93,0,0,1-.37,10.61,25.83,25.83,0,0,0,.38-5.26,22.37,22.37,0,0,0-.69-5.18c-1-3.35-2.62-6.49-3.68-9.93a17.64,17.64,0,0,1-.85-5.37A19.48,19.48,0,0,1,321,168a29.12,29.12,0,0,0,1.14-5.12,6.29,6.29,0,0,0-.07-2.56A2.17,2.17,0,0,0,320.19,158.8Z" style="fill: rgb(38, 50, 56); transform-origin: 322.708px 178.875px;" id="elnpx8c370rro" class="animable"></path><path d="M347,221.32l-38.33-9.43s5,24.49,10.69,32.67,14.37,16.19,25,10.69C352.3,251.13,347,221.32,347,221.32Z" style="fill: #FFA500; transform-origin: 328.701px 234.477px;" id="el2qjdzc6tvqu" class="animable"></path><path d="M344.16,228.54c-1.94-.61-4-1.06-5.93-1.55s-4-1-6-1.41c-4-.89-8-1.76-12-2.58l-3.28-.65c-1.18-.22-2.38-.29-3.55-.52a.07.07,0,0,0,0,.14c1,.24,1.91.62,2.88.87s2,.51,3,.75q3,.71,6,1.38c4,.89,8,1.77,12,2.54,2.26.43,4.54.93,6.82,1.23A.1.1,0,1,0,344.16,228.54Z" style="fill: rgb(38, 50, 56); transform-origin: 328.782px 225.287px;" id="el5si8alpqfky" class="animable"></path><path d="M345.74,221c.44.05.86.11,1.29.18l.07,0,0,.09a62.39,62.39,0,0,1,1.71,10.06,44.78,44.78,0,0,1-.11,10.22c-.25-3.4-.54-6.76-.87-10.12s-.7-6.73-1-10.12l.09.1C346.56,221.31,346.15,221.16,345.74,221Z" style="fill: rgb(38, 50, 56); transform-origin: 347.395px 231.275px;" id="eltv7jumkstid" class="animable"></path><path d="M372.66,166.84s0-.05.06,0c.16,3.7.76,12.25,6.37,11.13,2.26-.45,4.19-2.12,5.78-3.73a32.54,32.54,0,0,0,4.29-5.47,48.67,48.67,0,0,0,3.81-6.84c0-.1.19,0,.15.08-1.11,2.39-2,4.85-3.32,7.13a28.31,28.31,0,0,1-4.62,6c-1.7,1.65-3.77,3.34-6.17,3.7a4.59,4.59,0,0,1-5-3A21,21,0,0,1,372.66,166.84Z" style="fill: rgb(38, 50, 56); transform-origin: 382.867px 170.389px;" id="el5o3ewbf1ylh" class="animable"></path><path d="M378.11,174.57c5.84.69,12.12-7.21,14.09-13.21.13-.41-1.17-4.23-2.53-9-.82-2.87-1.65-6.08-2.21-9.07l-17.89,8a48.34,48.34,0,0,1,3.93,11.14,6.07,6.07,0,0,1,.1,1.25c0,.06,0,.13,0,.21C373.67,166.36,373.71,174.05,378.11,174.57Z" style="fill: rgb(173, 99, 89); transform-origin: 380.889px 158.951px;" id="elkz4qh97nai8" class="animable"></path><path d="M369.57,151.36a48.66,48.66,0,0,1,3.94,11.14,6.71,6.71,0,0,1,.09,1.24,1.65,1.65,0,0,0,0,.21,9.47,9.47,0,0,0,1.94-.25c11.31-2.62,11.29-16.19,11.06-20Z" style="fill: rgb(38, 50, 56); transform-origin: 378.112px 153.825px;" id="elf0srvbq0nls" class="animable"></path><path d="M389.88,123.49c2.2,6.71-1,26.3-5.68,30.75-6.84,6.45-18.23,7.29-23.76-1-5.36-8-.79-33.46,4.5-37.53C372.72,109.75,386.63,113.57,389.88,123.49Z" style="fill: rgb(173, 99, 89); transform-origin: 374.316px 136.07px;" id="elt0jevdgm9t" class="animable"></path><path d="M370.5,135.91s.09.08.08.13c-.22,1.31-.26,2.85.87,3.45,0,0,0,.09,0,.07C370,139.16,370.07,137.12,370.5,135.91Z" style="fill: rgb(38, 50, 56); transform-origin: 370.84px 137.736px;" id="el4undsn4vm17" class="animable"></path><path d="M371.86,134.7c2.14.14,1.71,4.4-.27,4.28S370.07,134.59,371.86,134.7Z" style="fill: rgb(38, 50, 56); transform-origin: 371.79px 136.84px;" id="elldo6qpkssuo" class="animable"></path><path d="M362.74,135.12c0-.05-.11.06-.11.11-.09,1.33-.42,2.83-1.66,3.15a0,0,0,0,0,0,.07C362.45,138.39,362.87,136.39,362.74,135.12Z" style="fill: rgb(38, 50, 56); transform-origin: 361.866px 136.779px;" id="elde1x7kjiqse" class="animable"></path><path d="M361.7,133.63c-2.11-.38-2.7,3.87-.75,4.21S363.47,133.94,361.7,133.63Z" style="fill: rgb(38, 50, 56); transform-origin: 361.262px 135.733px;" id="elots6czy98aa" class="animable"></path><path d="M373,132.26a15.46,15.46,0,0,1-1.6-.74,3,3,0,0,1-1.48-1.07.91.91,0,0,1,.26-1.08,2.25,2.25,0,0,1,2.27,0,3.28,3.28,0,0,1,1.75,1.61A1,1,0,0,1,373,132.26Z" style="fill: rgb(38, 50, 56); transform-origin: 372.045px 130.677px;" id="el4vq785ihbes" class="animable"></path><path d="M360.27,131.32c.6,0,1.14-.18,1.73-.27a2.91,2.91,0,0,0,1.72-.62.89.89,0,0,0,.06-1.1,2.24,2.24,0,0,0-2.18-.65,3.28,3.28,0,0,0-2.13,1.06A1,1,0,0,0,360.27,131.32Z" style="fill: rgb(38, 50, 56); transform-origin: 361.613px 129.967px;" id="els9kmhihcfd" class="animable"></path><path d="M370.73,147.72c-.29.34-.56.8-1,.88a3.42,3.42,0,0,1-1.45-.19c-.05,0-.08,0-.05.07a1.8,1.8,0,0,0,1.74.56,1.41,1.41,0,0,0,.93-1.27A.07.07,0,0,0,370.73,147.72Z" style="fill: rgb(38, 50, 56); transform-origin: 369.561px 148.37px;" id="elivajfdl3bf" class="animable"></path><path d="M369.44,143.76a4.51,4.51,0,0,1-3.2,1.7,5.89,5.89,0,0,1-1.62-.09,5.63,5.63,0,0,1-.59-.14.32.32,0,0,1-.24-.32h0c0-.05.37-2.82.37-2.82-.39.15-2.37.82-2.29.29.71-4.37,1.49-9.24,3.11-13.44a.12.12,0,0,1,.24.06c-.51,4.23-1.76,8.34-2.34,12.58a7.7,7.7,0,0,1,2.19-.43c.07,0-.54,3.44-.54,3.47a6.26,6.26,0,0,0,4.8-1C369.44,143.56,369.53,143.66,369.44,143.76Z" style="fill: rgb(38, 50, 56); transform-origin: 365.672px 137.164px;" id="el8rg56sc554" class="animable"></path><path d="M365.29,144.84a5.22,5.22,0,0,0,2,1.83,2.38,2.38,0,0,0,1.43.23c1.07-.18,1.19-1.14,1.07-2a5.59,5.59,0,0,0-.35-1.3A6.9,6.9,0,0,1,365.29,144.84Z" style="fill: rgb(38, 50, 56); transform-origin: 367.559px 145.263px;" id="elxv4f2zqmt0a" class="animable"></path><path d="M367.26,146.67a2.38,2.38,0,0,0,1.43.23c1.07-.18,1.19-1.14,1.07-2A2.46,2.46,0,0,0,367.26,146.67Z" style="fill: rgb(255, 156, 189); transform-origin: 368.529px 145.911px;" id="el88fypksd9b" class="animable"></path><path d="M390.77,141.06c-5.25.1-7.66-6.27-6.18-11.22,0,0-14,1.14-14.1-10.06a12.66,12.66,0,0,1-9.91,4.83l-1.11,4c-1.4-.49-2.76-4.89.89-7.89,0,0,.52-5.56,4.79-8.69a7.62,7.62,0,0,1,8.24-.73,11.5,11.5,0,0,1,8.49-1.64,9.8,9.8,0,0,1,7,5.69s6.82,1.66,7.75,6.61a10.2,10.2,0,0,1-1.77,8.11s1.63,2,.54,6.14C394.66,138.9,392.35,141,390.77,141.06Z" style="fill: rgb(38, 50, 56); transform-origin: 377.43px 125.252px;" id="elkmwi6wht17r" class="animable"></path><path d="M370.84,118.81a13.08,13.08,0,0,0-.16,2.72,10.74,10.74,0,0,0,.37,2.66,7,7,0,0,0,3,4.17,11.35,11.35,0,0,0,5.06,1.55c.91,0,1.82.1,2.72.07s1.82-.12,2.75-.14c-.9.17-1.81.3-2.73.45s-1.84.07-2.77.11a11.21,11.21,0,0,1-5.38-1.5,7.35,7.35,0,0,1-3.14-4.59A11.12,11.12,0,0,1,370.84,118.81Z" style="fill: rgb(38, 50, 56); transform-origin: 377.46px 124.605px;" id="el0pua3vz4qpgb" class="animable"></path><path d="M388.84,115.39a12.82,12.82,0,0,1,5.07,1.37,7.75,7.75,0,0,1,3.7,3.81,8.39,8.39,0,0,1,.53,2.65,8,8,0,0,1-.27,2.67,7.22,7.22,0,0,1-3.05,4.22,7.89,7.89,0,0,0,2.57-4.34,8.82,8.82,0,0,0-.38-5,6.57,6.57,0,0,0-1.34-2.08,9.77,9.77,0,0,0-2-1.54A16.24,16.24,0,0,0,388.84,115.39Z" style="fill: rgb(38, 50, 56); transform-origin: 393.499px 122.75px;" id="elbbva5df5qyf" class="animable"></path><path d="M373.39,111.34a13.15,13.15,0,0,0-4.05-1,7.47,7.47,0,0,0-7,3.32,13.89,13.89,0,0,0-1.85,3.74,10.34,10.34,0,0,1,1.44-4,7.16,7.16,0,0,1,7.47-3.53A9.9,9.9,0,0,1,373.39,111.34Z" style="fill: rgb(38, 50, 56); transform-origin: 366.94px 113.581px;" id="el29dztm46jj7" class="animable"></path><path d="M363.35,124.9a14.54,14.54,0,0,0,4.33-2.06,8.8,8.8,0,0,0,1.72-1.62,11.4,11.4,0,0,0,1.27-2,5.89,5.89,0,0,1-.87,2.34,6.53,6.53,0,0,1-1.74,1.85,8.09,8.09,0,0,1-2.25,1.14A7.68,7.68,0,0,1,363.35,124.9Z" style="fill: rgb(38, 50, 56); transform-origin: 367.01px 122.061px;" id="elynq16b4wnzp" class="animable"></path><path d="M371,143.27a5.86,5.86,0,0,1-4.17-7.13h0a5.84,5.84,0,1,1,5.61,7.32A6.55,6.55,0,0,1,371,143.27Zm-3.41-6.93a5.05,5.05,0,1,0,6.17-3.61,5.44,5.44,0,0,0-1.25-.17A5.08,5.08,0,0,0,367.6,136.34Z" style="fill: rgb(69, 90, 100); transform-origin: 372.481px 137.62px;" id="el62189mbxjov" class="animable"></path><path d="M359.29,141.71c-2.37-.29-4-3.13-3.59-6.32a6.94,6.94,0,0,1,1.73-3.9,3.63,3.63,0,0,1,6.17.77,6.91,6.91,0,0,1,.72,4.2c-.37,3-2.41,5.29-4.65,5.28ZM358,132a6.16,6.16,0,0,0-1.53,3.46c-.34,2.77,1,5.22,2.92,5.46s3.82-1.81,4.16-4.58a6.24,6.24,0,0,0-.63-3.73,3.09,3.09,0,0,0-2.29-1.72,1.37,1.37,0,0,0-.29,0A3.19,3.19,0,0,0,358,132Z" style="fill: rgb(69, 90, 100); transform-origin: 360.014px 135.922px;" id="elvpdi0z9mmn" class="animable"></path><path d="M366.9,136.83l.48-.45c-.66-.71-2.27-1.76-3.62-.63l.42.5C365.39,135.24,366.84,136.76,366.9,136.83Z" style="fill: rgb(69, 90, 100); transform-origin: 365.57px 136.041px;" id="el3e0apgrow6a" class="animable"></path><path d="M393.66,142.21l.62-.23c-.11-.28-1.08-2.82-2.51-3.24s-13.54-1.84-13.92-1.85l0,.65c2.54.08,12.73,1.53,13.76,1.83S393.41,141.52,393.66,142.21Z" style="fill: rgb(69, 90, 100); transform-origin: 386.065px 139.55px;" id="el93ggzyw2r4j" class="animable"></path><path d="M385.28,140.67s4.41-6.31,7.28-4.74-.45,10.72-3.81,12a3.43,3.43,0,0,1-4.59-1.84Z" style="fill: rgb(173, 99, 89); transform-origin: 388.906px 141.956px;" id="elc4v8ldf88h9" class="animable"></path><path d="M391.54,138.53a0,0,0,0,1,0,.09c-2.36,1-3.6,3.14-4.47,5.41a1.9,1.9,0,0,1,2.83-.52c.06.05,0,.14-.07.13a2.1,2.1,0,0,0-2.31.73,10.1,10.1,0,0,0-1.11,1.88c-.11.21-.49.1-.41-.15l0,0C386,143,388.31,138.83,391.54,138.53Z" style="fill: rgb(38, 50, 56); transform-origin: 388.765px 142.445px;" id="elqctv2ed33q9" class="animable"></path><path d="M373.41,161.7l5.51,10.51L391.12,157l4.31,4.05s-11.08,23.37-11.27,22.39l-5.47-9-5.85,7.23-1.14-16.54Z" style="fill: rgb(235, 235, 235); transform-origin: 383.565px 170.235px;" id="elmezdh8cx11s" class="animable"></path><path d="M371.81,173.51c-.09-2.74-.27-5.5-.24-8.24,0-.09.15-.15.18,0,.81,2.57,1.13,13,1.39,15.53l0,0c.24-.31,5.45-6.39,5.52-6.31,1.13,1.4,5.14,7.94,5.43,8.55,1.75-3.72,8.53-17.25,10.69-20.81a.09.09,0,0,1,.17.08c-1.48,3.88-10.43,22.09-10.59,22a106,106,0,0,1-5.74-9.5c-.85,1.3-6,8.09-6.11,7.69A87,87,0,0,1,371.81,173.51Z" style="fill: rgb(38, 50, 56); transform-origin: 383.263px 173.244px;" id="elun4svo76cqm" class="animable"></path><path d="M440.52,254.33c-8.19.78-18.08-6-43.59-26.29-3.54-2.81,9.6-33.07,13.53-30.26,4.94,3.54,23.36,18.34,24.57,19.59C445.24,227.93,446.07,253.8,440.52,254.33Z" style="fill: rgb(173, 99, 89); transform-origin: 420.128px 225.993px;" id="eltrkm9j81ale" class="animable"></path><path d="M419.47,207.48S412.41,196.64,407,192.1c-7.33-6.09-16.15-8.32-19.91-9-7.84-1.49-27.83.32-28.31,6.17-.44,5.29,19.9,2.41,19.9,2.41s-21.22-.48-20.57,6,24.06,1.78,24.06,1.78-21.81,0-20.09,6.56c1.3,5,22.75,1.91,22.75,1.91s-18.75.12-17.63,5.29c1.23,5.7,21.21,4.12,21.21,4.12,5.05,12.64,12.89,16.47,18.62,18.64C408.36,236.46,419.47,207.48,419.47,207.48Z" style="fill: rgb(173, 99, 89); transform-origin: 388.783px 209.295px;" id="elwm529df1fi" class="animable"></path><path d="M386,191.33c-2.49-.14-5-.31-7.51-.23s-5,.24-7.46.54a42.72,42.72,0,0,0-9.53,2.12c5.61-1.49,14.54-1.9,17-2s5-.27,7.47-.35C386.05,191.43,386,191.34,386,191.33Z" style="fill: rgb(38, 50, 56); transform-origin: 373.758px 192.42px;" id="elmsz9rlypan" class="animable"></path><path d="M386.42,200.34c-3.19-.05-6.36-.22-9.55-.12s-6.18.45-9.34.76c-.24,0-.15.15.09.13,3.18-.18,6.12-.1,9.29-.25s6.35-.41,9.51-.44C386.47,200.41,386.46,200.34,386.42,200.34Z" style="fill: rgb(38, 50, 56); transform-origin: 376.921px 200.65px;" id="elno9tkrtrbh" class="animable"></path><path d="M388.18,208a71.54,71.54,0,0,0-14.61.93c-.24,0-.1.18.15.16,4.85-.4,8.65-.75,14.45-.92C388.26,208.17,388.28,208,388.18,208Z" style="fill: rgb(38, 50, 56); transform-origin: 380.846px 208.519px;" id="el4u57zfd3e09" class="animable"></path><path d="M419.64,203.3l-11.95,37.36s27.14,17.55,33.47,13.47,3.22-26.07-3.39-34.68C435,215.86,419.64,203.3,419.64,203.3Z" style="fill: #FFA500; transform-origin: 426.151px 229.023px;" id="el0qr70risl76" class="animable"></path><path d="M419.25,204.54l.46-1.22-.11,0c2.54,2.25,5.09,4.49,7.6,6.77s5,4.54,7.41,6.93a39.4,39.4,0,0,1,3.38,3.72,29.47,29.47,0,0,1,2.63,4.25,32.07,32.07,0,0,1,3,9.63,26.74,26.74,0,0,0-2.31-9.93,23.75,23.75,0,0,0-2.59-4.47,38.14,38.14,0,0,0-3.4-3.86c-2.43-2.4-5-4.66-7.57-6.86s-5.28-4.28-8-6.29l-.08-.05,0,.09Z" style="fill: rgb(38, 50, 56); transform-origin: 431.435px 218.89px;" id="el8w2lvlm84eo" class="animable"></path><path d="M425.35,212.93c-.71,1.83-1.28,3.73-1.88,5.6s-1.19,3.74-1.75,5.63c-1.12,3.76-2.23,7.53-3.28,11.32-.29,1-.58,2.07-.85,3.11s-.43,2.27-.73,3.38c0,.09.1.12.13,0,.29-.92.72-1.8,1-2.72s.62-1.9.92-2.86q.87-2.82,1.72-5.64c1.13-3.76,2.24-7.54,3.24-11.33.57-2.15,1.2-4.3,1.64-6.47A.1.1,0,0,0,425.35,212.93Z" style="fill: rgb(38, 50, 56); transform-origin: 421.185px 227.474px;" id="elz44jd10dc9b" class="animable"></path><path d="M408.75,237.33c-.27,1.14-.58,2.26-.88,3.38l-.07-.21c2.33,1.42,4.7,2.8,7.07,4.15s4.77,2.68,7.19,3.94c1.2.64,2.44,1.22,3.65,1.84s2.47,1.16,3.72,1.68a39.24,39.24,0,0,0,7.77,2.54,28.54,28.54,0,0,1-8-1.87,61.22,61.22,0,0,1-7.56-3.32c-2.46-1.24-4.85-2.6-7.19-4.05s-4.62-3-6.84-4.6l-.12-.09.05-.12C407.92,239.51,408.32,238.41,408.75,237.33Z" style="fill: rgb(38, 50, 56); transform-origin: 422.345px 245.99px;" id="els6xzs8shije" class="animable"></path></g><g id="freepik--character-1--inject-534" class="animable" style="transform-origin: 172.684px 292.201px;"><polygon points="178.63 315.72 181.66 333.89 202.18 457.53 205.49 457.53 190.57 333.89 188.36 315.72 178.63 315.72" style="fill: rgb(219, 219, 219); transform-origin: 192.06px 386.625px;" id="eleauou9bios5" class="animable"></polygon><polygon points="188.36 315.72 178.63 315.72 181.66 333.89 190.57 333.89 188.36 315.72" style="fill: rgb(166, 166, 166); transform-origin: 184.6px 324.805px;" id="el86wosks1new" class="animable"></polygon><polygon points="114.16 457.53 117.47 457.53 138 333.89 141.03 315.72 131.29 315.72 129.09 333.89 114.16 457.53" style="fill: rgb(219, 219, 219); transform-origin: 127.595px 386.625px;" id="el5exdtq3xyor" class="animable"></polygon><polygon points="131.29 315.72 129.09 333.89 138 333.89 141.03 315.72 131.29 315.72" style="fill: rgb(166, 166, 166); transform-origin: 135.06px 324.805px;" id="el6suy3efuox3" class="animable"></polygon><polygon points="52.58 457.53 55.89 457.53 76.42 333.89 79.45 315.72 69.72 315.72 67.51 333.89 52.58 457.53" style="fill: rgb(219, 219, 219); transform-origin: 66.015px 386.625px;" id="el9227dy9fug" class="animable"></polygon><polygon points="67.51 333.89 76.42 333.89 79.45 315.72 69.72 315.72 67.51 333.89" style="fill: rgb(166, 166, 166); transform-origin: 73.48px 324.805px;" id="elzbhovterbn" class="animable"></polygon><polygon points="57.83 324.26 208.26 324.26 208.26 308.41 151.95 308.41 133.02 198.3 63.57 198.3 57.83 324.26" style="fill: rgb(219, 219, 219); transform-origin: 133.045px 261.28px;" id="el6sld1cxcknt" class="animable"></polygon><polygon points="57.83 324.26 66.03 324.26 71.38 198.3 63.57 198.3 57.83 324.26" style="fill: rgb(166, 166, 166); transform-origin: 64.605px 261.28px;" id="eliwd3d7vxluj" class="animable"></polygon><path d="M292,413.64c-2.49,1.6-80.35,21.43-83.8,20.31-1.31-.42-4.85-11.59-8.76-25.21-.84-2.94-1.7-6-2.55-9.08C191.38,379.58,186,358.14,186,358.14L238,344.72l9.51,41.89,2.09,9.2s33.21,5.74,36.86,7.37S294.51,412,292,413.64Z" style="fill: rgb(247, 169, 160); transform-origin: 239.369px 389.358px;" id="elky00651ucna" class="animable"></path><path d="M201,413.93c3.29,11.17,6.12,19.65,7.26,20,3.45,1.12,81.31-18.72,83.8-20.32s-1.91-8.8-5.54-10.45c-2.25-1-15.75-3.57-25.77-5.4,8.75,1.7,25.17,6.87-8.15,10.73C225,411.72,206.82,413.42,201,413.93Z" style="fill: rgb(38, 50, 56); transform-origin: 246.894px 415.868px;" id="elh4n0ud1f5oe" class="animable"></path><path d="M222.85,456.89c-2.82.92-83.16.25-86.21-1.71-1.16-.74.53-33.06,1.24-36.19,2.39-10.61,14.57-42.77,14.57-42.77l53.74.29-19.8,52.34s30.65,14,33.76,16.52S225.66,456,222.85,456.89Z" style="fill: rgb(247, 169, 160); transform-origin: 180.17px 416.758px;" id="elsowcfy52p6" class="animable"></path><path d="M136.64,455.18c3.05,2,83.39,2.63,86.21,1.72s.4-9-2.69-11.53c-1.46-1.17-8.88-4.82-16.39-8.4,9.44,4.79,24.53,15.73-67.12-1C136.22,445.22,136,454.78,136.64,455.18Z" style="fill: rgb(38, 50, 56); transform-origin: 180.169px 446.639px;" id="elarb0j40r2ob" class="animable"></path><path d="M91.62,303.73c16.74,17.11,69.82.73,73.33,7.67,3.1,6.12-29.18,108-29.18,108l58.89,3.78S240.47,310.23,221,279c-10.52-16.86-53.27-8.11-79.39-10.14-7.88-.62-12.26-16.62-12.26-16.62l-46.43,2S72.47,284.18,91.62,303.73Z" style="fill: rgb(55, 71, 79); transform-origin: 152.947px 337.71px;" id="eleq87mpnvpbr" class="animable"></path><path d="M204.26,269.79l-47.59,39.8c-16.36.36-51.9,7.58-65-5.86-19.15-19.55-8.71-49.48-8.71-49.48l46.43-2s4.38,16,12.25,16.62C159.93,270.28,186.43,266.4,204.26,269.79Z" style="fill: rgb(38, 50, 56); transform-origin: 142.19px 282.049px;" id="elet32vxalpa6" class="animable"></path><path d="M196.33,410c-1.64-.43-16.91-1.47-20.28-1.69-6.74-.43-28-1.49-31.78-1.31-.1,0-.11.16,0,.18,3.36.55,16.91,1.54,20.27,1.74,6.75.4,29.93,1.64,31.79,1.37A.15.15,0,0,0,196.33,410Z" style="fill: rgb(38, 50, 56); transform-origin: 170.316px 408.654px;" id="eluq62hmcuvgf" class="animable"></path><path d="M171.81,305.22c-3.85-1.71-32.38.45-53-.58-6.7-.34-13.47-1.47-18.75-5.63a30.45,30.45,0,0,1-9.78-14.63C88,277.46,87.92,270.15,88,263c0-1.76,0-3.53.08-5.3,0-.1-.18-.12-.18,0-1,12.92-1.58,27.33,7.26,38.1a26.87,26.87,0,0,0,15.37,9.16c12.51,2.71,59-.11,60.66,1.08,2,1.41-24.07,94.21-24.59,96-.1.33.48.53.6.2C149.81,395,175.16,306.71,171.81,305.22Z" style="fill: rgb(38, 50, 56); transform-origin: 129.735px 330.013px;" id="elxpwqvlywu5" class="animable"></path><path d="M223.23,282c-3.07-6.9-9.57-11-18.91-12.27-.16,0-.14.21,0,.25,8.2,2,14.13,5,17.6,11.71,1.63,3.12,2.59,7.57,3.24,13.56,3.22,29.88-20,99-20.46,100.22,0,.11.11.19.16.08C208.29,389.2,235.89,310.47,223.23,282Z" style="fill: rgb(38, 50, 56); transform-origin: 215.369px 332.666px;" id="el8p4qbiftu0k" class="animable"></path><path d="M248.87,383.86l-44,11.37s30.5-106,13.46-118.81c-4.72-3.54-14.71-4.42-26.31,1.2-17.3,8.38-37,24.8-56,31.31-17.8,6.1-39.41,2.13-47.12-5.65-16.21-16.36-6-49-6-49l63.74-5.16s-.92.81,2.24,3.38c0,0,37.15-10.13,53.89-.88C233,268.27,248.87,383.86,248.87,383.86Z" style="fill: rgb(55, 71, 79); transform-origin: 164.299px 321.478px;" id="eldkxyfwfkxjh" class="animable"></path><path d="M110.65,256.77a.11.11,0,0,0-.22.05,35.9,35.9,0,0,1-.24,7.18,12.43,12.43,0,0,1-3,6.09c-3.35,3.69-8.32,5.11-12.84,6.76-.24.08-.18.51.09.46,5.06-1,10.35-2.53,13.91-6.51a12.37,12.37,0,0,0,3-6.55A15.24,15.24,0,0,0,110.65,256.77Z" style="fill: rgb(38, 50, 56); transform-origin: 102.867px 266.998px;" id="el51jenr0721n" class="animable"></path><path d="M217.16,274.47c-7-4-17.53-.27-22.56,1.91-.1,0,0,.21.06.17,4.63-1.89,16.21-5,22.65-.8,14.89,9.6-1.41,80.42-12.42,119.48-.17.61.3.43.54-.16,1.9-4.66,16.12-54,19-86.41C224.86,303.68,227.27,280.22,217.16,274.47Z" style="fill: rgb(38, 50, 56); transform-origin: 209.773px 334.155px;" id="elzixczrfkooo" class="animable"></path><path d="M243.3,372.28c-1.34,0-12.74,3.06-15.24,3.74-5,1.36-16.64,4.91-19.34,6.08-.07,0,0,.18.06.17,2.62-.37,8.69-2,11.19-2.67,5-1.4,22.18-6.31,23.43-7.05C243.5,372.49,243.43,372.28,243.3,372.28Z" style="fill: rgb(38, 50, 56); transform-origin: 226.069px 377.275px;" id="elmjy7jswdjg" class="animable"></path><path d="M214.91,272.75c-4.7-2.31-10.18-2.49-15.25-1.64a53.12,53.12,0,0,0-15.28,5.52c-10.18,5.2-19.82,11.43-30,16.6s-21,9.3-32.39,10.14c-9.72.72-22.12-.46-28.76-8.95-10.24-13.08-5.62-36.59-5.58-38.1,0-.12-.15-.11-.17,0-6.25,28.93,3.86,39.62,10.56,44,5.32,3.48,12.78,4.1,17.7,4.3,11.37.47,22.61-2.8,32.93-7.44,10.59-4.76,20.43-11,30.52-16.69,9.67-5.49,20.46-11.18,31.88-8.77a28.31,28.31,0,0,1,3.82,1.12C214.94,272.88,215,272.78,214.91,272.75Z" style="fill: rgb(38, 50, 56); transform-origin: 150.238px 280.449px;" id="elkr12bdwhqom" class="animable"></path><path d="M141.11,171.12c.69,4.13,1.39,8.28,1.92,12.44.32,2.54.48,5.06.57,7.6a16.32,16.32,0,0,1-2.58,2.73c0-.64-.05-1.29-.07-1.91-.1-3-.44-6-.82-9,0-.1-.15-.06-.14,0,.29,3.1.36,6.26.41,9.38,0,.68,0,1.36,0,2a22.12,22.12,0,0,1-2.88,1.9q0-1.12,0-2.22c0-1.73,0-3.45-.12-5.17a97.45,97.45,0,0,0-1-10.12c0-.14-.19-.09-.18,0,.34,3.47.56,7,.68,10.46,0,1.65.08,3.31.08,5,0,.79,0,1.59-.06,2.39a35.33,35.33,0,0,1-5.71,2.34c-5.6,1.77-11.72,1.45-17.43.37A30.28,30.28,0,0,1,100,193a33.48,33.48,0,0,0,3-8.48c0-.1-.09-.14-.13-.05-.67,1.89-1.41,3.73-2.22,5.54-.39.85-.81,1.68-1.22,2.51l-.18-.16c-.39-.35-.8-.72-1.21-1.12a55,55,0,0,0,2.09-5.3,48.14,48.14,0,0,0,2.12-7.81c0-.17-.17-.25-.23-.08-.85,2.48-1.64,5-2.52,7.47-.62,1.74-1.34,3.44-2,5.16a7,7,0,0,1-2.14-4.76,13.52,13.52,0,0,1,1.21-4.5,51,51,0,0,0,1.56-4.91c.93-3.43,3.8-8.3,4.76-22.41.22-3.32,0-6.67.26-10a12.46,12.46,0,0,1,2.87-7.47,11.89,11.89,0,0,1,5.4-3.3c0-.09,10.32-11.09,22.67-4.18,14,7.85,14.33,48.4,13.49,53.27a25.05,25.05,0,0,1-3.24,7.7c-.09-2.14-.32-4.28-.59-6.36-.55-4.3-1.47-8.5-2.41-12.71A.1.1,0,1,0,141.11,171.12Z" style="fill: rgb(38, 50, 56); transform-origin: 121.604px 163.533px;" id="el435ebvmo8fr" class="animable"></path><path d="M123.14,190.83c14.89,16.76,34.92,32.33,43,31.71,6.52-.5,44.59-25.65,47.2-29.33,2.24-3.16-17.17-26.07-20.91-24.27-6.28,3-28.19,22.79-30.13,22.59s-18.17-6.46-34.34-13.22C112.5,171.83,112.81,179.19,123.14,190.83Z" style="fill: rgb(247, 169, 160); transform-origin: 164.662px 195.699px;" id="elyyvntylt99l" class="animable"></path><path d="M209.15,196.65c3.06-1.9,16.32-11.87,19.39-15.47s11.15-14.59,8.63-17.22-5.14.4-5.14.4,2.68-5.19-.09-7.6-6.71,2.43-6.71,2.43,2.37-5.53-.57-7.74-6.08,3.32-6.08,3.32,2.4-5-.79-5.75c-3.84-1-7.22,8.66-10.91,12.38-.84.84-18.19,15.9-18.19,15.9Z" style="fill: rgb(247, 169, 160); transform-origin: 213.17px 172.799px;" id="eljbx9jbu146" class="animable"></path><path d="M218.86,154.31c-2.5,7.07-4.82,9.73-10.63,14.3-.11.09,0,.28.12.19,6.09-4,9.48-6.87,10.86-14.39C219.28,154,219,154,218.86,154.31Z" style="fill: rgb(38, 50, 56); transform-origin: 213.703px 161.456px;" id="elyy09rtn745p" class="animable"></path><path d="M225.42,158.62c-3.24,7.12-5.73,10-11.46,15.26-.08.08,0,.22.13.15,6-4.66,9.36-7.65,11.67-15.19C225.86,158.5,225.57,158.3,225.42,158.62Z" style="fill: rgb(38, 50, 56); transform-origin: 219.854px 166.254px;" id="elnsmqbxj2inr" class="animable"></path><path d="M231.73,164.62c-3.64,6.66-6.23,10-12.44,14.33a.14.14,0,0,0,.15.24c6.76-3.84,10-7.94,12.48-14.44C232.09,164.3,232,164.2,231.73,164.62Z" style="fill: rgb(38, 50, 56); transform-origin: 225.615px 171.782px;" id="elnw4qh0zb6o" class="animable"></path><path d="M182.73,177.53s2.64-9,4.67-12.73,14.7-14.74,17.24-12.14c3.27,3.36-2.78,11.16-6.25,14.6,0,0,7.59,7.76,4.45,14.3S182.73,177.53,182.73,177.53Z" style="fill: rgb(247, 169, 160); transform-origin: 194.154px 167.981px;" id="elam3nzkqtjhw" class="animable"></path><path d="M205.23,153.88c.78,5.21-4.06,9.43-7.17,13a.43.43,0,0,0,.14.69c3,3.47,6.14,9.22,4.92,13.87,0,.14.16.21.21.08,2-4.82-.67-10.72-4.16-14.31,3.25-3.63,7.92-8.07,6.11-13.36C205.27,153.84,205.23,153.84,205.23,153.88Z" style="fill: rgb(38, 50, 56); transform-origin: 201.813px 167.717px;" id="elht0e3szfx0r" class="animable"></path><path d="M179.58,176.91l25.58,29s-31.49,18.72-39.95,17.51-19.18-8.06-41.11-31.1c-17.37-18.25-4.28-19,6.26-14.25,8.61,3.86,30.44,12.59,32.1,11.76S179.58,176.91,179.58,176.91Z" style="fill: #FFA500; transform-origin: 160.4px 199.535px;" id="el8d0w87gox7n" class="animable"></path><path d="M205.15,205.91s-28.48,16.94-38.54,17.55a7.07,7.07,0,0,1-1.4,0c-8.46-1.22-19.18-8.06-41.12-31.1-7.68-8.08-9.4-12.72-8-15,1.75-2.84,8.41-1.91,14.3.73,8.6,3.86,30.43,12.6,32.1,11.76s17.12-12.92,17.12-12.92Z" style="fill: #FFA500; transform-origin: 160.398px 199.559px;" id="elbmxgdn4gvva" class="animable"></path><path d="M174.67,183c3.49,4.51,7.2,8.87,11,13.14,1.86,2.09,3.72,4.19,5.65,6.21s4.16,4.1,6.16,6.22c.09.09.24,0,.15-.14-1.92-2.16-3.69-4.48-5.57-6.7s-3.68-4.21-5.53-6.31c-3.78-4.28-7.59-8.55-11.51-12.69A.21.21,0,0,0,174.67,183Z" style="fill: rgb(38, 50, 56); transform-origin: 186.141px 195.625px;" id="elv2gifa3l2u9" class="animable"></path><g id="elmq9wxlvraln"><path d="M173,221.94a25.85,25.85,0,0,1-6.39,1.52,7.07,7.07,0,0,1-1.4,0c-8.46-1.22-19.18-8.06-41.12-31.1-7.68-8.08-9.4-12.72-8-15a3,3,0,0,1,1.07-1Z" style="opacity: 0.1; transform-origin: 144.323px 199.927px;" class="animable" id="el7txu6ilnydt"></path></g><path d="M145.15,232.8,146.64,249s-19.11,2.94-66.58,5c0,0,7.82-51.11,23.07-70.67,7.62-9.78,17.51-9.91,24.31-4.07,1.71,1.48,18.13,26.47,20.91,35.86C150.78,223.42,145.15,232.8,145.15,232.8Z" style="fill: #FFA500; transform-origin: 114.509px 214.665px;" id="elk05yvk6i3yr" class="animable"></path><path d="M124.52,184.74c1.78,3.91,3.49,7.85,5.09,11.83s3.21,8,4.57,12.05c.69,2,1.34,4.1,1.88,6.2a17.63,17.63,0,0,1,.45,6.55,28.06,28.06,0,0,1-1.55,6.35,35.27,35.27,0,0,1-2.8,5.89l.07-.27c.25,2.86.41,5.73.62,8.59s.35,5.73.48,8.6q-.57-4.28-1.05-8.55c-.3-2.85-.65-5.7-.92-8.56v-.13l.08-.14a31.24,31.24,0,0,0,4.09-11.89c.62-4.19-.92-8.28-2.18-12.36s-2.79-8.09-4.28-12.11Z" style="fill: rgb(38, 50, 56); transform-origin: 130.577px 217.635px;" id="el3d5qcfz5f78" class="animable"></path><path d="M134.43,200.47a1.07,1.07,0,0,1-.79,1.23,1,1,0,0,1-1.11-.86,1.07,1.07,0,0,1,.79-1.23A1,1,0,0,1,134.43,200.47Z" style="fill: rgb(38, 50, 56); transform-origin: 133.48px 200.655px;" id="eluz92g759r9" class="animable"></path><path d="M138.72,212.23a1.07,1.07,0,0,1-.79,1.23,1,1,0,0,1-1.11-.86,1.07,1.07,0,0,1,.79-1.23A1,1,0,0,1,138.72,212.23Z" style="fill: rgb(38, 50, 56); transform-origin: 137.77px 212.415px;" id="elalcjbthtgs" class="animable"></path><path d="M139.23,224.22a1.05,1.05,0,0,1-.78,1.22,1,1,0,0,1-1.11-.86,1.06,1.06,0,0,1,.79-1.23A1,1,0,0,1,139.23,224.22Z" style="fill: rgb(38, 50, 56); transform-origin: 138.285px 224.396px;" id="eldes3905bac4" class="animable"></path><path d="M135.88,234.13a1.05,1.05,0,0,1-.78,1.22,1,1,0,0,1-1.11-.86,1.06,1.06,0,0,1,.79-1.23A1,1,0,0,1,135.88,234.13Z" style="fill: rgb(38, 50, 56); transform-origin: 134.935px 234.306px;" id="elcxk56mlbwz8" class="animable"></path><path d="M137.16,245a1.07,1.07,0,0,1-.79,1.22,1,1,0,0,1-1.11-.86,1.07,1.07,0,0,1,.79-1.23A1,1,0,0,1,137.16,245Z" style="fill: rgb(38, 50, 56); transform-origin: 136.209px 245.175px;" id="el07uagrzhh8vf" class="animable"></path><path d="M102.09,186.06c-9.61,18.45-26.36,56.25-19.77,66.23s41.46,15.1,53.38,16.68c3.93.52,16.79-27.85,12.85-29.39-6.7-2.62-38.16-6.93-39.25-9-.68-1.3,4.39-25.81,4.49-40.11C113.93,171.88,105.08,180.33,102.09,186.06Z" style="fill: rgb(247, 169, 160); transform-origin: 115.058px 224.031px;" id="elc4nxp0r0typ" class="animable"></path><path d="M145.08,238.57s12.35,1.18,20.39,2.33c4.49.64,12.08,2.43,15.16,4.4,4.61,3,22,18.28,18.36,22.57-3.28,3.89-16.54-11.17-16.54-11.17s14.72,14,9.91,18-17.52-15.05-17.52-15.05,14.8,14.73,9.19,18c-4.23,2.49-16.72-14.07-16.72-14.07s12.64,12.75,8.39,15.5c-4.69,3-17.18-11.53-17.18-11.53-12,5.16-19.77,2.73-25.12.33C132.1,267.29,145.08,238.57,145.08,238.57Z" style="fill: rgb(247, 169, 160); transform-origin: 166.398px 259.029px;" id="elbi7w2wnd6tn" class="animable"></path><path d="M177.67,251.53c1.79,1.59,3.61,3.18,5.25,4.91s3.23,3.54,4.7,5.42a40.85,40.85,0,0,1,5,7.86c-2.79-4.8-8.58-11.11-10.22-12.84s-3.19-3.55-4.83-5.29C177.56,251.55,177.63,251.5,177.67,251.53Z" style="fill: rgb(38, 50, 56); transform-origin: 185.095px 260.62px;" id="eluq3wlq8apt" class="animable"></path><path d="M171.29,257.35c2.2,2.12,4.46,4.14,6.56,6.36s3.89,4.48,5.82,6.83c.15.18,0,.2-.15,0-2-2.27-4.08-4.21-6.13-6.45s-4-4.57-6.15-6.72C171.2,257.36,171.26,257.32,171.29,257.35Z" style="fill: rgb(38, 50, 56); transform-origin: 177.479px 264.011px;" id="elw8vnz6lnm9" class="animable"></path><path d="M164.92,261.35a68.13,68.13,0,0,1,9.28,10.5c.14.19,0,.19-.2,0-3-3.55-5.37-6.35-9.19-10.38C164.75,261.41,164.85,261.29,164.92,261.35Z" style="fill: rgb(38, 50, 56); transform-origin: 169.524px 266.663px;" id="el285u0hao5ft" class="animable"></path><path d="M146.17,237.93l-23.61,31.94s-36.45-6.7-42.12-18.8,10.24-47.45,19.24-62.19,15.11-14.66,14.7,1.81c-.37,14.75-4.79,38.63-4.19,39.41S146.17,237.93,146.17,237.93Z" style="fill: #FFA500; transform-origin: 112.709px 223.97px;" id="elbl8m8gq8fev" class="animable"></path><path d="M136.72,237.77c-3.7,4.34-7.21,8.85-10.61,13.43-1.67,2.24-3.35,4.49-4.93,6.8s-3.16,4.91-4.83,7.29c-.07.11.09.24.16.13,1.73-2.33,3.64-4.53,5.43-6.82s3.37-4.47,5-6.71c3.42-4.58,6.82-9.17,10.07-13.86A.21.21,0,0,0,136.72,237.77Z" style="fill: rgb(38, 50, 56); transform-origin: 126.678px 251.605px;" id="elgjxyjdydjjt" class="animable"></path><path d="M146.24,237.93c-2.8-.1-36.27-7.15-36.31-7.16s1.16-10.59,1.42-12.58q.8-6.12,1.85-12.21c0-.09.17-.09.16,0-.08,2.46-.25,4.93-.47,7.37.33-1.08.68-2.15,1.09-3.2a.09.09,0,0,1,.16.06c-.46,2.08-1,4.16-1.54,6.22-.06.55-.09,1.09-.16,1.63q-.36,3.08-.81,6.13c-.15,1-.75,4.89-.88,5.93,4.43.67,32.92,6.73,35.52,7.6C146.37,237.76,146.34,237.94,146.24,237.93Z" style="fill: rgb(38, 50, 56); transform-origin: 128.13px 221.921px;" id="el5ydkrs56g5p" class="animable"></path><path d="M80.5,251.23a10.1,10.1,0,0,0,1.84,2.57c.1.09,0,.12-.15,0a4.93,4.93,0,0,1-1.74-2.54C80.44,251.24,80.46,251.17,80.5,251.23Z" style="fill: rgb(38, 50, 56); transform-origin: 81.4138px 252.543px;" id="ela0h6qmebz7k" class="animable"></path><path d="M112.84,178.28c.25,1.25,5.89,9.47,11.55,9.39,1.85,0,2.14-10.1,2.14-10.1l.19-.74,2.67-10.34-12-8.25-1.73-1.1s-.54,2.88-1.18,6.47c0,.17-.07.33-.1.51s-.08.39-.11.58c-.1.54-.2,1.08-.29,1.63s-.15.82-.2,1.26-.13.87-.2,1.31A67.92,67.92,0,0,0,112.84,178.28Z" style="fill: rgb(247, 169, 160); transform-origin: 121.115px 172.405px;" id="el9alm4r2btg8" class="animable"></path><path d="M114.49,163.61a21.4,21.4,0,0,0,12.23,13.22l2.67-10.34-12-8.25-1.73-1.1S115.13,160,114.49,163.61Z" style="fill: rgb(38, 50, 56); transform-origin: 121.94px 166.985px;" id="elasw9pvfiqde" class="animable"></path><path d="M143.69,148.74c3.14,18.48-7.57,22.45-11.56,23.12-3.62.61-16,2.23-21-15.83s2.57-25.35,10.77-27.19S140.55,130.26,143.69,148.74Z" style="fill: rgb(247, 169, 160); transform-origin: 126.893px 150.29px;" id="el2cgx3gbbp5l" class="animable"></path><path d="M139.66,144c-.44,0-.86,0-1.3-.06a2.16,2.16,0,0,1-1.32-.31.68.68,0,0,1-.13-.81,1.65,1.65,0,0,1,1.55-.65,2.44,2.44,0,0,1,1.66.6A.72.72,0,0,1,139.66,144Z" style="fill: rgb(38, 50, 56); transform-origin: 138.582px 143.077px;" id="elwjzuaaso4ak" class="animable"></path><path d="M127.42,146.18a12.62,12.62,0,0,0,1.21-.47,2.14,2.14,0,0,0,1.15-.72.68.68,0,0,0-.14-.81,1.65,1.65,0,0,0-1.68-.12,2.44,2.44,0,0,0-1.37,1.11A.72.72,0,0,0,127.42,146.18Z" style="fill: rgb(38, 50, 56); transform-origin: 128.187px 145.044px;" id="elqy8lokifu3" class="animable"></path><path d="M131,150.44c0-.05-.08.08-.07.13.28,1.25.39,2.74-.67,3.37,0,0,0,.09,0,.07C131.63,153.55,131.46,151.58,131,150.44Z" style="fill: rgb(38, 50, 56); transform-origin: 130.797px 152.221px;" id="el25a9mz6x96v" class="animable"></path><path d="M129.61,149.34c-2.05.23-1.43,4.33.47,4.11S131.34,149.14,129.61,149.34Z" style="fill: rgb(38, 50, 56); transform-origin: 129.787px 151.396px;" id="eltyal91upqa" class="animable"></path><path d="M128.84,149.68c-.32.28-.61.75-1,.85s-.94-.24-1.33-.61c0,0-.07,0-.06.06.11.79.53,1.55,1.39,1.54s1.23-.79,1.31-1.61C129.13,149.76,129,149.56,128.84,149.68Z" style="fill: rgb(38, 50, 56); transform-origin: 127.8px 150.582px;" id="el0r511mbtbjf" class="animable"></path><path d="M138,149.05c0-.05.11,0,.12.1.14,1.28.52,2.72,1.73,3,0,0,0,.07,0,.07C138.39,152.2,137.91,150.28,138,149.05Z" style="fill: rgb(38, 50, 56); transform-origin: 138.92px 150.625px;" id="elndfh8h7imka" class="animable"></path><path d="M138.93,147.56c2-.45,2.77,3.63.89,4.05S137.23,147.94,138.93,147.56Z" style="fill: rgb(38, 50, 56); transform-origin: 139.431px 149.583px;" id="el1wyuck9olci" class="animable"></path><path d="M139.83,147.67c.36.16.75.5,1.14.45s.7-.55.91-1c0-.05.06,0,.07,0,.16.78.05,1.64-.67,1.93s-1.28-.32-1.61-1.06C139.61,147.85,139.68,147.61,139.83,147.67Z" style="fill: rgb(38, 50, 56); transform-origin: 140.831px 148.111px;" id="elm2gh4hcfst" class="animable"></path><path d="M132.65,160.57c.33.27.68.65,1.15.64a3.26,3.26,0,0,0,1.34-.47,0,0,0,0,1,.06.06,1.73,1.73,0,0,1-1.55.87,1.35,1.35,0,0,1-1.12-1C132.5,160.57,132.6,160.53,132.65,160.57Z" style="fill: rgb(38, 50, 56); transform-origin: 133.862px 161.113px;" id="elz8n3ozdcj8" class="animable"></path><path d="M137.2,155.13s.57,1.85.71,2.74c0,.08-.19.16-.49.23,0,0,0,0,0,0a4.28,4.28,0,0,1-4.38-.91.09.09,0,0,1,.11-.14,6.47,6.47,0,0,0,4.06.47c0-.25-1.08-3.13-.94-3.17a8.14,8.14,0,0,1,2.1.13c-1.08-3.89-2.77-7.57-3.78-11.46a.12.12,0,0,1,.22-.09,65.14,65.14,0,0,1,4.6,12.17C139.53,155.59,137.58,155.22,137.2,155.13Z" style="fill: rgb(38, 50, 56); transform-origin: 136.215px 150.611px;" id="elckwzhms5a7j" class="animable"></path><path d="M137.18,157.89a5.12,5.12,0,0,1-1.69,2,2.27,2.27,0,0,1-1.34.36c-1-.07-1.25-1-1.22-1.77a5.72,5.72,0,0,1,.2-1.28A6.59,6.59,0,0,0,137.18,157.89Z" style="fill: rgb(38, 50, 56); transform-origin: 135.054px 158.726px;" id="el6vllfsgxioy" class="animable"></path><path d="M135.49,159.84a2.27,2.27,0,0,1-1.34.36c-1-.07-1.25-1-1.22-1.77A2.34,2.34,0,0,1,135.49,159.84Z" style="fill: rgb(255, 154, 187); transform-origin: 134.209px 159.299px;" id="elqfyrvrrjjgq" class="animable"></path><path d="M111.53,157.48c3.16-.25,2.85-6.91,2.85-6.91s6.35-1,7-10.43a14.26,14.26,0,0,1-1.62,8s11-2.95,14.24-13c0,0-1.13,5.07-2.62,7,0,0,4.48-2.05,6.17-6.22,0,0,2.81,5.1,4.55,6.36,0,0-3.53-19.51-21.34-14.58,0,0-11.24,2.53-13.91,12.16S111.53,157.48,111.53,157.48Z" style="fill: rgb(38, 50, 56); transform-origin: 124.183px 142.191px;" id="el3984o9j35yp" class="animable"></path><path d="M114.19,155.26s-4.56-5.5-7.09-3.83,1.24,9.87,4.44,10.78a3.17,3.17,0,0,0,4.09-2.05Z" style="fill: rgb(247, 169, 160); transform-origin: 110.95px 156.754px;" id="elxk3i5x8y7m" class="animable"></path><path d="M108.24,153.76a0,0,0,0,0,0,.08c2.25.7,3.56,2.63,4.54,4.66a1.75,1.75,0,0,0-2.65-.27c-.05.05,0,.13.07.12a1.93,1.93,0,0,1,2.19.5,9.64,9.64,0,0,1,1.17,1.65c.12.18.46.05.37-.17l0-.05C113.72,157.5,111.25,153.79,108.24,153.76Z" style="fill: rgb(38, 50, 56); transform-origin: 111.092px 157.172px;" id="elowl3xij46g" class="animable"></path><path d="M126.81,176.49l-2.42,8.72-11.54-9.4-2.56,3.72s12,15.64,12,14.87l2.63-7.57,5.53,4.45-1.81-12.52Z" style="fill: #FFA500; transform-origin: 120.37px 185.119px;" id="el1rlfkrmqthli" class="animable"></path><path d="M129.89,185c-.36-2.06-.68-4.14-1.14-6.18,0-.07-.13-.09-.14,0-.19,2,1.25,9.9,1.46,11.8l0,0c-.23-.19-5.09-3.88-5.13-3.81-.61,1.22-2.55,6.74-2.67,7.24-1.9-2.49-9.88-12.23-12.06-14.54-.06-.06-.17,0-.12.09,1.73,2.65,12.07,15.53,12.2,15.48a81.74,81.74,0,0,0,2.74-8c.85.83,5.81,5.06,5.79,4.75A64.89,64.89,0,0,0,129.89,185Z" style="fill: rgb(38, 50, 56); transform-origin: 120.449px 186.92px;" id="elc2kn0cfwwjb" class="animable"></path></g><g id="freepik--Plant--inject-534" class="animable" style="transform-origin: 91.3524px 392.957px;"><path d="M90.07,351.92A41.77,41.77,0,0,1,89.26,368a44.49,44.49,0,0,1-2.46,7.1c-1.28,2.93-2.61,5.8-2.29,9,.31.2-.76.17-.79-.14-8.59-4.89-19.61-5.79-26.22-13.79-3.13-3.78-4.71-8.58-5.46-13.38-.81-5.23-1-11,.31-16.17,1.14-4.36,3.69-8.56,7.78-10.69s9.76-2,14.21-.64C83.94,332.28,88.71,342.63,90.07,351.92Z" style="fill: #FFA500; transform-origin: 70.9497px 356.26px;" id="el6xjzgo8k908" class="animable"></path><path d="M94.48,415.51c-1.17-3.91-2.34-7.82-3.55-11.71-2.35-7.64-4.8-15.24-7.52-22.76q-2.43-6.75-5.14-13.38a80.73,80.73,0,0,1,1-8.3c.72-3.33,1.76-6.55,2.73-9.81.06-.2-.26-.3-.35-.11-1.92,4.49-4.44,10.23-4.5,15.55-2.1-5-4.34-9.93-6.76-14.78a64.25,64.25,0,0,1,.38-12.31.15.15,0,0,0-.29,0,43.76,43.76,0,0,0-.84,10.86c-1.84-3.64-3.79-7.25-5.86-10.79-.19-.32-.63,0-.46.32q4.83,9.33,9,19a41.45,41.45,0,0,0-13.47-7.8c-.21-.07-.37.24-.16.33a48.85,48.85,0,0,1,14.57,9.64q3,7.07,5.77,14.24c-5.37-5.27-12.73-8.73-19.84-10.59-.24-.07-.31.3-.07.37,8.23,2.48,14.63,7.15,20.89,12.76q1.09,2.9,2.14,5.81,4,11,7.58,22.22,1.72,5.35,3.41,10.72c1.2,3.86,2.14,7.92,3.7,11.64.15.36.79.28.71-.15A112.94,112.94,0,0,0,94.48,415.51Z" style="fill: rgb(38, 50, 56); transform-origin: 78.0742px 382.323px;" id="elpm3gm9wutkm" class="animable"></path><path d="M80.23,344.4a21.37,21.37,0,0,0-3.09,7.71c0,.07.1.12.12,0a68,68,0,0,1,3.36-7.56C80.75,344.34,80.38,344.18,80.23,344.4Z" style="fill: rgb(38, 50, 56); transform-origin: 78.8936px 348.238px;" id="eluy7oqyqtia" class="animable"></path><path d="M64.91,362.3a22.7,22.7,0,0,0-7.71-2.6c-.07,0-.11.1,0,.13,1.24.51,2.54.87,3.79,1.35s2.49,1.07,3.77,1.52A.22.22,0,0,0,64.91,362.3Z" style="fill: rgb(38, 50, 56); transform-origin: 61.0687px 361.201px;" id="elih0w2g124b" class="animable"></path><path d="M60.59,340.77a14.78,14.78,0,0,0-2.48-1.53.13.13,0,0,0-.14.21A14.6,14.6,0,0,0,60.41,341C60.57,341.14,60.75,340.87,60.59,340.77Z" style="fill: rgb(38, 50, 56); transform-origin: 59.2942px 340.136px;" id="elod4qx1annrk" class="animable"></path><path d="M119,381.1c-6.19,1.83-12.4,3.53-18.59,5.35-.54.16-11-19.88-7.22-30.21a33.7,33.7,0,0,1,21-19.95c4.42-1.5,9.85-2.76,14.52-1.73,4.15.91,7.08,4.31,8.43,8.21,1.83,5.31,1.22,11.63.22,17.05a29.74,29.74,0,0,1-6.09,13.91C128.05,377.63,123.85,379.67,119,381.1Z" style="fill: #FFA500; transform-origin: 115.342px 360.318px;" id="elze0r1f3y7wr" class="animable"></path><path d="M128,362.05a82.11,82.11,0,0,1-12.13,4.77,50.73,50.73,0,0,0-8.1,2.94c2.62-5.83,5.48-11.53,8.53-17.18,4-1.16,8.2-3,11.21-5.79a.17.17,0,0,0-.23-.26c-3.29,2.33-6.93,3.73-10.57,5.3q1.23-2.28,2.5-4.55c.23-.43-.35-.84-.63-.44a129.21,129.21,0,0,0-8.79,14.77,67.17,67.17,0,0,1-.64-13.53c0-.12-.16-.12-.18,0a45.19,45.19,0,0,0,.15,14.86c-2.17,4.33-4.14,8.77-5.92,13.26-.71-2.7-1.62-5.35-2.23-8.07a37,37,0,0,1-.89-11.91.09.09,0,0,0-.18,0,42,42,0,0,0,2.59,21.87c-1,2.7-2,5.41-2.92,8.13a162,162,0,0,0-8.21,42.93.26.26,0,0,0,.52,0,212.77,212.77,0,0,1,9.22-42.42c1.79-5.4,3.86-10.64,6.13-15.77,3.65-1.08,7.29-2.55,10.88-3.79a34.43,34.43,0,0,0,10-4.92A.13.13,0,0,0,128,362.05Z" style="fill: rgb(38, 50, 56); transform-origin: 109.745px 387.949px;" id="ele1qboldp6og" class="animable"></path><path d="M133.77,356.23c-3.78,1.34-7.37,3.23-11.15,4.59-.18.07-.07.35.1.31,4-.83,8-2.06,11.19-4.69C134,356.34,133.9,356.18,133.77,356.23Z" style="fill: rgb(38, 50, 56); transform-origin: 128.236px 358.677px;" id="el65xpy94d4d2" class="animable"></path><path d="M102.87,348.06c0-.2-.24-.31-.31-.11-1,3.49-1.75,7.19-.74,10.76a.14.14,0,0,0,.27,0C102.27,355.1,102.07,351.6,102.87,348.06Z" style="fill: rgb(38, 50, 56); transform-origin: 102.105px 353.329px;" id="el0ckq1g4d2tzk" class="animable"></path><path d="M118.51,340a9.17,9.17,0,0,0-1.64,5.93c0,.13.21.21.25.05.46-2,1.23-3.81,1.84-5.75A.26.26,0,0,0,118.51,340Z" style="fill: rgb(38, 50, 56); transform-origin: 117.907px 342.989px;" id="elazo1n1cf32t" class="animable"></path><path d="M45.44,389.94c1.81,5.75,6.12,13.71,13,13.77,4.42.05,8.88-.48,13.32-.54,4.74-.08,9.51-.06,14.24.22.39,0-.56-14.22-12-21.16-3.2-1.94-7.11-2.56-10.74-3.34a49.71,49.71,0,0,0-12.68-1.33c-2.62.11-4.81.66-5.74,3.35S44.57,387.2,45.44,389.94Z" style="fill: #FFA500; transform-origin: 65.2282px 390.629px;" id="elzxdrwwotb3" class="animable"></path><path d="M50.35,382.73q4.17,1.08,8.36,2.42a30.39,30.39,0,0,0-2.3-2.24,45.39,45.39,0,0,0-3.8-2.66c-.1-.08,0-.28.1-.23a15.65,15.65,0,0,1,6.73,5.36c3.47,1.12,6.91,2.35,10.21,3.71a37.92,37.92,0,0,1,6.54,3.44,26.19,26.19,0,0,0-2.36-4.11c-1.52-2-3.57-3.06-5.55-4.45a.18.18,0,0,1,.18-.31,16.22,16.22,0,0,1,8.9,9.66,38.09,38.09,0,0,1,6.48,5.88c7.55,8.57,13.5,20,13.52,31.63,0,.28-.45.36-.5.07A64.53,64.53,0,0,0,82.46,400c-.54-.63-1.1-1.23-1.66-1.81a52.08,52.08,0,0,0-6.24-.46c-2.43,0-4.85.36-7.27.55-4,.33-8.39.37-12-1.63-.16-.09-.05-.37.13-.3,8,2.91,16.41-.78,24.45.95A37.71,37.71,0,0,0,68,389.62l-.74-.29c-5.14.62-10.57,2-15.58.29a.13.13,0,0,1,.07-.24c4.84,1.21,9.48-.31,14.25-.55-5.2-2-10.5-3.64-15.71-5.65C49.89,383,49.88,382.61,50.35,382.73Z" style="fill: rgb(38, 50, 56); transform-origin: 73.6767px 405.547px;" id="elvm88g0ny7rq" class="animable"></path><path d="M48.08,387.8a69.51,69.51,0,0,0,7.49.56.06.06,0,0,1,0,.11A15.48,15.48,0,0,1,48,388C47.91,388,48,387.78,48.08,387.8Z" style="fill: rgb(38, 50, 56); transform-origin: 51.7842px 388.267px;" id="elekme5cqc5b8" class="animable"></path><path d="M65,382.86a12.25,12.25,0,0,1,3.7,2.57c.13.12,0,.35-.18.25-.63-.46-1.28-.89-1.93-1.31a19.72,19.72,0,0,1-1.81-1.14C64.6,383.09,64.79,382.79,65,382.86Z" style="fill: rgb(38, 50, 56); transform-origin: 66.7304px 384.277px;" id="el9sskfuwinfk" class="animable"></path><path d="M105.3,401.39c-.09.19.18.37.29.17h0a.3.3,0,0,0,.18.12,116.13,116.13,0,0,0,13.94,2.43c3.78.33,8.13.54,11.43-1.65,4.48-3,7.42-10.9,5-15.95-2.86-6-11.49-2.73-15.82-.6A31.74,31.74,0,0,0,105.3,401.39Z" style="fill: #FFA500; transform-origin: 121.146px 393.7px;" id="elphziyrgot3" class="animable"></path><path d="M102,404.16a45.21,45.21,0,0,1,8.32-6.34,28.64,28.64,0,0,1,8.45-8.6c.16-.12.3.14.15.26a37.84,37.84,0,0,0-7.11,7.48,78,78,0,0,1,10.44-4.75,13.92,13.92,0,0,1,5.61-5.62s.11,0,.06.08a23,23,0,0,0-5.06,5.31c2.12-.79,4.26-1.53,6.4-2.24.2-.06.27.23.09.3-3.82,1.49-7.72,3.07-11.5,4.88a44.22,44.22,0,0,0,13.92,0c.13,0,.19.16.06.2a27.54,27.54,0,0,1-14.77.22,68.59,68.59,0,0,0-7,3.92,17.62,17.62,0,0,1,5.67.46,43.24,43.24,0,0,0,9.94,1.13c.13,0,.16.2,0,.22-5.77,1-11.22-1.63-16.94-.94a44.07,44.07,0,0,0-6,4.86,44.79,44.79,0,0,0-8.69,12.26c-2.41,4.9-3.71,10.1-5.66,15.16a.18.18,0,0,1-.35-.1C89.7,422.29,94.67,411.28,102,404.16Z" style="fill: rgb(38, 50, 56); transform-origin: 109.963px 409.566px;" id="el53vly1xtzr4" class="animable"></path><path d="M119.35,390.47a6.55,6.55,0,0,1,1.48-1.79,5.9,5.9,0,0,1,1.71-1.28s.09.06,0,.1c-.47.53-1.13.93-1.64,1.44s-.94,1.12-1.46,1.63A.09.09,0,0,1,119.35,390.47Z" style="fill: rgb(38, 50, 56); transform-origin: 120.965px 388.985px;" id="el3ch0eiue7i3" class="animable"></path><path d="M128.87,393.57c.86-.22,1.76-.2,2.63-.38a25.86,25.86,0,0,0,2.56-.76c.11,0,.17.13.07.18a8.44,8.44,0,0,1-5.26,1.23A.14.14,0,0,1,128.87,393.57Z" style="fill: rgb(38, 50, 56); transform-origin: 131.474px 393.154px;" id="elvg19wuvfwrq" class="animable"></path><polygon points="78.17 419.97 78.92 428.57 81.5 457.62 104.24 457.62 107.45 428.57 108.4 419.97 78.17 419.97" style="fill: rgb(69, 90, 100); transform-origin: 93.285px 438.795px;" id="elad15kmsj70r" class="animable"></polygon><polygon points="78.17 419.97 78.92 428.57 107.45 428.57 108.4 419.97 78.17 419.97" style="fill: rgb(38, 50, 56); transform-origin: 93.285px 424.27px;" id="elz60g918bkcn" class="animable"></polygon><g id="el6ml12fle2wr"><rect x="75.91" y="417.62" width="34.74" height="6.98" style="fill: rgb(69, 90, 100); transform-origin: 93.28px 421.11px; transform: rotate(180deg);" class="animable" id="el35p6kctz14a"></rect></g></g><g id="freepik--speech-bubbles-2--inject-534" class="animable animator-active" style="transform-origin: 337.425px 103.147px;"><path d="M278.31,109.5a33.37,33.37,0,0,0,53.28,26.8L348,140.48l-6.81-15.23a33.39,33.39,0,1,0-62.83-15.75Z" style="fill: rgb(255, 255, 255); transform-origin: 313.155px 109.498px;" id="el7w06x9gaqbn" class="animable"></path><path d="M278.31,109.5a33.55,33.55,0,0,0,5,17.47,30.07,30.07,0,0,0,5.86,7.05,22.53,22.53,0,0,0,1.73,1.51l1.85,1.36c.62.46,1.31.81,1.95,1.21l1,.59c.33.19.69.34,1,.51l2.08,1L301,141a16.78,16.78,0,0,0,2.2.64c.75.16,1.47.41,2.23.51a31.8,31.8,0,0,0,4.55.49,28,28,0,0,0,4.58-.06A33,33,0,0,0,331.38,136l.13-.1.17,0,16.38,4.09-.51.61-6.85-15.21-.1-.22.12-.21a33.06,33.06,0,0,0,1.09-28.85A34.38,34.38,0,0,0,333,84.26a33,33,0,0,0-13.21-6.85,33.17,33.17,0,0,0-41.44,32.09Zm0,0a33.6,33.6,0,0,1,12.82-26.36,34.24,34.24,0,0,1,13.63-6.48,33.68,33.68,0,0,1,40.78,34.1,33.11,33.11,0,0,1-4,14.72l0-.43,6.77,15.25.37.83-.88-.22-16.34-4.26.3-.06A33.6,33.6,0,0,1,314.6,143a30,30,0,0,1-4.64,0,32.14,32.14,0,0,1-4.59-.56c-.77-.11-1.5-.37-2.25-.55a17.19,17.19,0,0,1-2.22-.67l-2.16-.81-2.08-1c-.35-.18-.7-.33-1-.52l-1-.61c-.65-.42-1.33-.78-1.95-1.24l-1.84-1.39a21,21,0,0,1-1.74-1.52,38.6,38.6,0,0,1-3.19-3.33,36.62,36.62,0,0,1-2.65-3.78A33.66,33.66,0,0,1,278.31,109.5Z" style="fill: rgb(38, 50, 56); transform-origin: 313.495px 109.494px;" id="ellmf4r11if0p" class="animable"></path><path d="M313.44,113.33V117a2.67,2.67,0,0,1-2.73,2.73A2.73,2.73,0,0,1,308,117v-5.8c0-.06,0-.06,0-.11s0-.06,0-.12a2.81,2.81,0,0,1,2.73-2.73,6.25,6.25,0,1,0,0-12.5,6.16,6.16,0,0,0-5.35,3.07,2.76,2.76,0,0,1-3.8,1,2.73,2.73,0,0,1-.95-3.74,11.72,11.72,0,1,1,12.83,17.29Zm0,12.22v1a2.67,2.67,0,0,1-2.73,2.74,2.74,2.74,0,0,1-2.73-2.74v-1a2.77,2.77,0,0,1,2.73-2.73A2.7,2.7,0,0,1,313.44,125.55Z" style="fill: rgb(38, 50, 56); transform-origin: 311.367px 109.762px;" id="el0by6sm99u905" class="animable"></path><path d="M396.52,82.7a19.31,19.31,0,0,1-30.83,15.5l-9.46,2.42,3.94-8.81a19.32,19.32,0,1,1,36.35-9.11Z" style="fill: #FFA500; transform-origin: 376.375px 82.6895px;" id="el60rddsom1o2" class="animable"></path><path d="M396.52,82.7a19.45,19.45,0,0,1-2.85,10.15A23.25,23.25,0,0,1,392.14,95,22.46,22.46,0,0,1,390.29,97a19,19,0,0,1-4.36,3.07,19.24,19.24,0,0,1-5.05,1.79,18.39,18.39,0,0,1-2.67.34,16.1,16.1,0,0,1-2.69,0,19.61,19.61,0,0,1-10-3.69l.3.06-9.44,2.5-.88.23.37-.84,3.9-8.83,0,.43a19.56,19.56,0,1,1,36.77-9.34Zm0,0a19.05,19.05,0,0,0-23.95-18.45,18.83,18.83,0,0,0-7.56,4A19.85,19.85,0,0,0,360,75.06a19,19,0,0,0-1.57,8.34,19.32,19.32,0,0,0,2.21,8.18l.12.21-.1.22-4,8.79-.51-.6,9.49-2.34.16,0,.14.1a19,19,0,0,0,9.65,3.79,17.74,17.74,0,0,0,2.63.05,19.23,19.23,0,0,0,2.62-.27,18.91,18.91,0,0,0,5-1.66,17.81,17.81,0,0,0,4.38-3,22.14,22.14,0,0,0,1.85-1.9,21.72,21.72,0,0,0,1.54-2.16A19.37,19.37,0,0,0,396.52,82.7Z" style="fill: rgb(38, 50, 56); transform-origin: 376.02px 82.7303px;" id="el54csor9j3bq" class="animable"></path><path d="M384.73,83.5a1.7,1.7,0,1,0,1.69-1.69A1.69,1.69,0,0,0,384.73,83.5Z" style="fill: rgb(38, 50, 56); transform-origin: 386.43px 83.51px;" id="el54rtir97b3j" class="animable"></path><path d="M375.8,83.5a1.7,1.7,0,1,0,1.7-1.69A1.7,1.7,0,0,0,375.8,83.5Z" style="fill: rgb(38, 50, 56); transform-origin: 377.5px 83.51px;" id="ely1zv9gq9meg" class="animable"></path><path d="M366.88,83.5a1.7,1.7,0,1,0,1.7-1.69A1.7,1.7,0,0,0,366.88,83.5Z" style="fill: rgb(38, 50, 56); transform-origin: 368.58px 83.51px;" id="el0j6essu7yx5p" class="animable"></path></g><g id="freepik--speech-bubbles-1--inject-534" class="animable" style="transform-origin: 161.425px 109.161px;"><path d="M103.48,102a19.31,19.31,0,0,0,30.83,15.51l9.46,2.42-3.94-8.81A19.32,19.32,0,1,0,103.48,102Z" style="fill: #FFA500; transform-origin: 123.625px 101.999px;" id="elwzt2vg98i3n" class="animable"></path><path d="M103.48,102a19.34,19.34,0,0,0,2.93,10.1,21.85,21.85,0,0,0,1.54,2.17,22.14,22.14,0,0,0,1.85,1.9,17.81,17.81,0,0,0,4.38,3,18.89,18.89,0,0,0,5,1.65,17.77,17.77,0,0,0,2.62.27,15.39,15.39,0,0,0,2.63,0,18.89,18.89,0,0,0,9.65-3.78l.14-.11.16.05,9.49,2.33-.51.61-4-8.8-.1-.21.12-.21a19.32,19.32,0,0,0,2.21-8.18,18.93,18.93,0,0,0-1.57-8.34A19.85,19.85,0,0,0,135,87.53a18.85,18.85,0,0,0-7.56-4,19.17,19.17,0,0,0-8.59-.27A19.14,19.14,0,0,0,103.48,102Zm0,0a19.44,19.44,0,0,1,7.4-15.27A19.67,19.67,0,0,1,118.77,83a19.66,19.66,0,0,1,16.7,4,19.59,19.59,0,0,1,4.78,24.39l0-.42,3.9,8.83.37.84-.88-.24-9.44-2.49.3-.06a19.7,19.7,0,0,1-10,3.69,18.57,18.57,0,0,1-2.69,0,19.89,19.89,0,0,1-2.67-.34,19.55,19.55,0,0,1-9.41-4.87,17.32,17.32,0,0,1-3.38-4.12A19.43,19.43,0,0,1,103.48,102Z" style="fill: rgb(38, 50, 56); transform-origin: 124px 102.064px;" id="elyvf941maaw8" class="animable"></path><path d="M123.49,104v2a1.46,1.46,0,0,1-1.49,1.49,1.5,1.5,0,0,1-1.5-1.49v-3.17s0,0,0-.06,0,0,0-.07a1.54,1.54,0,0,1,1.5-1.49,3.42,3.42,0,1,0,0-6.83A3.37,3.37,0,0,0,119.07,96a1.51,1.51,0,0,1-2.08.54,1.48,1.48,0,0,1-.51-2,6.41,6.41,0,1,1,7,9.46Zm0,6.67v.55a1.46,1.46,0,0,1-1.49,1.5,1.5,1.5,0,0,1-1.5-1.5v-.55a1.52,1.52,0,0,1,1.5-1.49A1.47,1.47,0,0,1,123.49,110.64Z" style="fill: rgb(255, 255, 255); transform-origin: 122.358px 102.034px;" id="elrvv5jsfjc9b" class="animable"></path><path d="M219.37,109.15A33.38,33.38,0,0,1,166.09,136l-16.35,4.17,6.81-15.23a33.39,33.39,0,1,1,62.82-15.75Z" style="fill: rgb(255, 255, 255); transform-origin: 184.555px 109.179px;" id="elhuohop1qmnd" class="animable"></path><path d="M219.37,109.15a33.5,33.5,0,0,1-5,17.52,36.62,36.62,0,0,1-2.65,3.78,38.6,38.6,0,0,1-3.19,3.33c-.59.5-1.11,1.08-1.74,1.52L205,136.69c-.61.46-1.3.82-1.94,1.24l-1,.61c-.33.19-.69.34-1,.52l-2.08,1-2.17.81a15.23,15.23,0,0,1-2.21.67c-.75.18-1.48.44-2.25.55a32.28,32.28,0,0,1-4.6.56,29.82,29.82,0,0,1-4.63,0,33.67,33.67,0,0,1-17.21-6.41l.3.06-16.33,4.26-.88.23.37-.84,6.77-15.25v.43a33.11,33.11,0,0,1-4-14.72,33.76,33.76,0,0,1,12.11-27.07,33.83,33.83,0,0,1,28.68-7,34,34,0,0,1,13.62,6.47A33.54,33.54,0,0,1,219.37,109.15Zm0,0a33.11,33.11,0,0,0-41.43-32.09,33,33,0,0,0-13.21,6.85,34.41,34.41,0,0,0-8.86,11.91,33,33,0,0,0,1.1,28.85l.11.21-.09.22-6.85,15.21-.51-.6,16.38-4.1.16,0,.14.1a33,33,0,0,0,16.82,6.51,29.06,29.06,0,0,0,4.57.07,33,33,0,0,0,4.55-.5c.76-.1,1.49-.35,2.24-.51a16.78,16.78,0,0,0,2.2-.64l2.16-.78,2.08-1c.34-.17.69-.32,1-.5l1-.6c.65-.4,1.34-.75,1.95-1.2l1.85-1.37a22.85,22.85,0,0,0,1.74-1.5,38.3,38.3,0,0,0,3.2-3.3,37.44,37.44,0,0,0,2.66-3.75A33.48,33.48,0,0,0,219.37,109.15Z" style="fill: rgb(38, 50, 56); transform-origin: 184.185px 109.161px;" id="elxu41ell6ecg" class="animable"></path><path d="M174.33,109.15a2.76,2.76,0,1,1-2.76-2.75A2.76,2.76,0,0,1,174.33,109.15Z" style="fill: rgb(38, 50, 56); transform-origin: 171.57px 109.16px;" id="elngln0bxqms" class="animable"></path><path d="M188.79,109.15A2.75,2.75,0,1,1,186,106.4,2.75,2.75,0,0,1,188.79,109.15Z" style="fill: rgb(38, 50, 56); transform-origin: 186.04px 109.15px;" id="el8gdzezlhw3r" class="animable"></path><path d="M203.26,109.15a2.76,2.76,0,1,1-2.76-2.75A2.76,2.76,0,0,1,203.26,109.15Z" style="fill: rgb(38, 50, 56); transform-origin: 200.5px 109.16px;" id="elrziuzzmrrm" class="animable"></path></g><defs>     <filter id="active" height="200%">         <feMorphology in="SourceAlpha" result="DILATED" operator="dilate" radius="2"></feMorphology>                <feFlood flood-color="#32DFEC" flood-opacity="1" result="PINK"></feFlood>        <feComposite in="PINK" in2="DILATED" operator="in" result="OUTLINE"></feComposite>        <feMerge>            <feMergeNode in="OUTLINE"></feMergeNode>            <feMergeNode in="SourceGraphic"></feMergeNode>        </feMerge>    </filter>    <filter id="hover" height="200%">        <feMorphology in="SourceAlpha" result="DILATED" operator="dilate" radius="2"></feMorphology>                <feFlood flood-color="#ff0000" flood-opacity="0.5" result="PINK"></feFlood>        <feComposite in="PINK" in2="DILATED" operator="in" result="OUTLINE"></feComposite>        <feMerge>            <feMergeNode in="OUTLINE"></feMergeNode>            <feMergeNode in="SourceGraphic"></feMergeNode>        </feMerge>            <feColorMatrix type="matrix" values="0   0   0   0   0                0   1   0   0   0                0   0   0   0   0                0   0   0   1   0 "></feColorMatrix>    </filter></defs></svg>